<?xml version="1.0" encoding="utf-8"?>
<!-- Generator: Adobe Illustrator 27.5.0, SVG Export Plug-In . SVG Version: 6.00 Build 0)  -->
<svg version="1.1" xmlns="http://www.w3.org/2000/svg" xmlns:xlink="http://www.w3.org/1999/xlink" x="0px" y="0px"
	 viewBox="0 0 500 500" style="enable-background:new 0 0 500 500;" xml:space="preserve">
<g id="BACKGROUND">
	<rect y="-0.001" style="fill-rule:evenodd;clip-rule:evenodd;fill:#FFFFFF;" width="500" height="500.001"/>
</g>
<g id="OBJECTS">
	<g>
		<g>
			<path style="fill-rule:evenodd;clip-rule:evenodd;fill:#F2DAD8;" d="M80.636,403.643
				C-6.933,368.407,19.219,259.529,90.89,217.419c32.6-19.154,69.347-31.232,71.74-80.829
				c4.344-90.153,100.436-90.891,161.541-43.848c50.877,39.169,38.361,87.176,77.258,118.533
				c43.31,34.915,117.27,108.017,38.758,183.27l-162.792,25.151L80.636,403.643z"/>
			<g>
				<defs>
					<path id="SVGID_1_" d="M80.636,403.643C-6.933,368.407,19.219,259.529,90.89,217.419c32.6-19.154,69.347-31.232,71.74-80.829
						c4.344-90.153,100.436-90.891,161.541-43.848c50.877,39.169,38.361,87.176,77.258,118.533
						c43.31,34.915,117.27,108.017,38.758,183.27l-162.792,25.151L80.636,403.643z"/>
				</defs>
				<clipPath id="SVGID_00000102526741970485391050000015605244013855402624_">
					<use xlink:href="#SVGID_1_"  style="overflow:visible;"/>
				</clipPath>
				<g style="clip-path:url(#SVGID_00000102526741970485391050000015605244013855402624_);">
					<path style="fill-rule:evenodd;clip-rule:evenodd;fill:#E3A9AB;" d="M453.841,437.95h-0.355v-5.576h-20.184h-0.004h-0.006
						h-20.184v5.576h-0.355v-5.576h-20.184h-0.006h-0.004h-20.184v5.576h-0.357v-5.576h-20.184h-0.004h-0.004h-20.184v5.576h-0.357
						v-5.576h-20.183h-0.005h-0.005H290.91v5.576h-0.355v-5.576h-20.183h-0.006h-0.004h-20.184v5.576h-0.357v-5.576h-20.183h-0.005
						h-0.004h-20.183v5.576h-0.356v-5.576h-20.184h-0.004h-0.004h-20.184v5.576h-0.356v-5.576h-20.183h-0.005h-0.004h-20.183v5.576
						h-0.357v-5.576h-20.183h-0.005h-0.004H87.248v5.576h-0.356v-5.576H66.708h-0.004h-0.005H46.516v5.576H46.16v-5.576H25.976
						h-0.004h-0.004h-12.13v-0.297h11.956v-9.779H13.837V422h12.13h0.009H46.16v-9.779H25.976h-0.004h-0.004h-12.13v-0.297h11.956
						v-9.779H13.837v-0.298h12.13h0.009H46.16v-9.779H25.976h-0.004h-0.004h-12.13v-0.298h11.956v-9.779H13.837v-0.297h12.13h0.009
						H46.16v-9.779H25.976h-0.004h-0.004h-12.13v-0.298h11.956v-9.779H13.837v-0.298h12.13h0.009H46.16v-9.779H25.976h-0.004h-0.004
						h-12.13v-0.297h11.956v-9.779H13.837v-0.297h12.13h0.009H46.16v-9.779H25.976h-0.004h-0.004h-12.13v-0.298h11.956v-9.779
						H13.837v-0.298h12.13h0.009H46.16v-9.779H25.976h-0.004h-0.004h-12.13v-0.297h11.956v-9.779H13.837v-0.298h12.13h0.009H46.16
						v-9.779H25.976h-0.004h-0.004h-12.13v-0.298h11.956v-9.779H13.837v-0.297h12.13h0.009H46.16v-9.779H25.976h-0.004h-0.004
						h-12.13v-0.298h11.956v-9.779H13.837v-0.297h12.13h0.009H46.16v-9.78H25.976h-0.004h-0.004h-12.13v-0.297h11.956v-9.779H13.837
						v-0.298h12.13h0.009H46.16v-9.779H25.976h-0.004h-0.004h-12.13v-0.297h11.956v-9.779H13.837v-0.298h12.13h0.009H46.16v-9.779
						H25.976h-0.004h-0.004h-12.13v-0.297h11.956v-9.779H13.837v-0.297h12.13h0.009H46.16v-9.779H25.976h-0.004h-0.004h-12.13
						v-0.298h11.956v-9.779H13.837v-0.297h12.13h0.009H46.16v-9.779H25.976h-0.004h-0.004h-12.13v-0.298h11.956v-9.779H13.837
						v-0.297h12.13h0.009H46.16v-9.779H25.976h-0.004h-0.004h-12.13v-0.298h11.956v-9.779H13.837v-0.298h12.13h0.009H46.16v-9.779
						H25.976h-0.004h-0.004h-12.13v-0.297h11.956v-9.779H13.837v-0.298h12.13h0.009H46.16v-9.779H25.976h-0.004h-0.004h-12.13
						v-0.297h11.956v-9.779H13.837v-0.298h12.13h0.009H46.16v-9.779H25.976h-0.004h-0.004h-12.13v-0.298h11.956v-9.779H13.837V79.39
						h12.13h0.009H46.16v-9.779H25.976h-0.004h-0.004h-12.13v-0.298h11.956v-9.779H13.837v-0.298h12.13h0.009H46.16v-9.778H25.976
						h-0.004h-0.004h-12.13V49.16h11.956v-5.576h0.356v5.576h20.184h0.009h20.183v-5.576h0.357v5.576h20.184h0.009h20.183v-5.576
						h0.357v5.576h20.184h0.009h20.184v-5.576h0.356v5.576h20.184h0.009h20.183v-5.576h0.356v5.576h20.184h0.009h20.183v-5.576
						h0.357v5.576h20.183h0.009h20.184v-5.576h0.355v5.576h20.184h0.01h20.184v-5.576h0.355v5.576h20.186h0.008h20.184v-5.576h0.357
						v5.576h20.182h0.01h20.184v-5.576h0.355v5.576h20.185h0.008h20.184v-5.576h0.355v5.576h20.185h0.008h20.184v-5.576h0.358v5.576
						h11.955v0.298h-12.129h-0.006h-0.004h-20.184v9.778h20.184h0.01h12.129v0.298h-11.955v9.779h11.955v0.298h-12.129h-0.006
						h-0.004h-20.184v9.779h20.184h0.01h12.129v0.297h-11.955v9.779h11.955v0.298h-12.129h-0.006h-0.004h-20.184v9.779h20.184h0.01
						h12.129v0.298h-11.955v9.779h11.955v0.297h-12.129h-0.006h-0.004h-20.184v9.779h20.184h0.01h12.129v0.298h-11.955v9.779h11.955
						v0.297h-12.129h-0.006h-0.004h-20.184v9.779h20.184h0.01h12.129v0.298h-11.955v9.779h11.955v0.298h-12.129h-0.006h-0.004
						h-20.184v9.779h20.184h0.01h12.129v0.297h-11.955v9.779h11.955v0.298h-12.129h-0.006h-0.004h-20.184v9.779h20.184h0.01h12.129
						v0.297h-11.955v9.779h11.955v0.298h-12.129h-0.006h-0.004h-20.184v9.779h20.184h0.01h12.129v0.297h-11.955v9.779h11.955v0.297
						h-12.129h-0.006h-0.004h-20.184v9.779h20.184h0.01h12.129v0.298h-11.955v9.779h11.955v0.297h-12.129h-0.006h-0.004h-20.184
						v9.779h20.184h0.01h12.129v0.298h-11.955v9.779h11.955v0.297h-12.129h-0.006h-0.004h-20.184v9.78h20.184h0.01h12.129v0.297
						h-11.955v9.779h11.955v0.298h-12.129h-0.006h-0.004h-20.184v9.779h20.184h0.01h12.129v0.297h-11.955v9.779h11.955v0.298
						h-12.129h-0.006h-0.004h-20.184v9.779h20.184h0.01h12.129v0.298h-11.955v9.779h11.955v0.297h-12.129h-0.006h-0.004h-20.184
						v9.779h20.184h0.01h12.129v0.298h-11.955v9.779h11.955v0.298h-12.129h-0.006h-0.004h-20.184v9.779h20.184h0.01h12.129v0.297
						h-11.955v9.779h11.955v0.297h-12.129h-0.006h-0.004h-20.184v9.779h20.184h0.01h12.129v0.298h-11.955v9.779h11.955v0.298
						h-12.129h-0.006h-0.004h-20.184v9.779h20.184h0.01h12.129v0.297h-11.955v9.779h11.955v0.298h-12.129h-0.006h-0.004h-20.184
						v9.779h20.184h0.01h12.129v0.298h-11.955v9.779h11.955v0.297h-12.129h-0.006h-0.004h-20.184V422h20.184h0.01h12.129v0.298
						h-11.955v9.779h11.955v0.297h-12.129h-0.006h-0.004h-20.184V437.95L453.841,437.95z M473.851,422.297h-20.184h-0.004h-0.004
						h-20.185v9.779h20.185h0.008h20.184V422.297L473.851,422.297z M433.118,422.297h-20.184h-0.004h-0.004h-20.185v9.779h20.185
						h0.008h20.184V422.297L433.118,422.297z M392.386,422.297h-20.184h-0.004h-0.006h-20.182v9.779h20.182h0.01h20.184V422.297
						L392.386,422.297z M351.653,422.297H331.47h-0.004h-0.004h-20.186v9.779h20.186h0.008h20.184V422.297L351.653,422.297z
						 M310.921,422.297h-20.184h-0.004h-0.006h-20.184v9.779h20.184h0.01h20.184V422.297L310.921,422.297z M270.189,422.297h-20.184
						H250h-0.005h-20.183v9.779h20.183h0.009h20.184V422.297L270.189,422.297z M229.456,422.297h-20.183h-0.004h-0.005H189.08v9.779
						h20.184h0.009h20.183V422.297L229.456,422.297z M188.723,422.297H168.54h-0.005h-0.004h-20.184v9.779h20.184h0.009h20.183
						V422.297L188.723,422.297z M147.991,422.297h-20.184h-0.004h-0.004h-20.184v9.779h20.184h0.009h20.184V422.297L147.991,422.297
						z M107.258,422.297H87.075H87.07h-0.004H66.882v9.779h20.184h0.009h20.183V422.297L107.258,422.297z M66.526,422.297H46.343
						h-0.005h-0.004H26.149v9.779h20.184h0.009h20.183V422.297L66.526,422.297z M453.485,412.22h-20.184h-0.004h-0.006h-20.184V422
						h20.184h0.01h20.184V412.22L453.485,412.22z M412.753,412.22h-20.184h-0.006h-0.004h-20.184V422h20.184h0.01h20.184V412.22
						L412.753,412.22z M372.019,412.22h-20.184h-0.004h-0.004h-20.184V422h20.184h0.008h20.184V412.22L372.019,412.22z
						 M331.286,412.22h-20.183h-0.005h-0.005H290.91V422h20.184h0.01h20.183V412.22L331.286,412.22z M290.555,412.22h-20.183h-0.006
						h-0.004h-20.184V422h20.184h0.01h20.183V412.22L290.555,412.22z M249.822,412.22h-20.183h-0.005h-0.004h-20.183V422h20.183
						h0.01h20.183V412.22L249.822,412.22z M209.09,412.22h-20.184h-0.004h-0.004h-20.184V422h20.184h0.009h20.184V412.22
						L209.09,412.22z M168.357,412.22h-20.183h-0.005h-0.004h-20.183V422h20.183h0.009h20.183V412.22L168.357,412.22z
						 M127.625,412.22h-20.183h-0.005h-0.004H87.248V422h20.184h0.009h20.183V412.22L127.625,412.22z M86.892,412.22H66.708h-0.004
						h-0.005H46.516V422h20.183h0.009h20.184V412.22L86.892,412.22z M473.851,402.144h-20.184h-0.004h-0.004h-20.185v9.779h20.185
						h0.008h20.184V402.144L473.851,402.144z M433.118,402.144h-20.184h-0.004h-0.004h-20.185v9.779h20.185h0.008h20.184V402.144
						L433.118,402.144z M392.386,402.144h-20.184h-0.004h-0.006h-20.182v9.779h20.182h0.01h20.184V402.144L392.386,402.144z
						 M351.653,402.144H331.47h-0.004h-0.004h-20.186v9.779h20.186h0.008h20.184V402.144L351.653,402.144z M310.921,402.144h-20.184
						h-0.004h-0.006h-20.184v9.779h20.184h0.01h20.184V402.144L310.921,402.144z M270.189,402.144h-20.184H250h-0.005h-20.183v9.779
						h20.183h0.009h20.184V402.144L270.189,402.144z M229.456,402.144h-20.183h-0.004h-0.005H189.08v9.779h20.184h0.009h20.183
						V402.144L229.456,402.144z M188.723,402.144H168.54h-0.005h-0.004h-20.184v9.779h20.184h0.009h20.183V402.144L188.723,402.144z
						 M147.991,402.144h-20.184h-0.004h-0.004h-20.184v9.779h20.184h0.009h20.184V402.144L147.991,402.144z M107.258,402.144H87.075
						H87.07h-0.004H66.882v9.779h20.184h0.009h20.183V402.144L107.258,402.144z M66.526,402.144H46.343h-0.005h-0.004H26.149v9.779
						h20.184h0.009h20.183V402.144L66.526,402.144z M453.485,392.067h-20.184h-0.004h-0.006h-20.184v9.779h20.184h0.01h20.184
						V392.067L453.485,392.067z M412.753,392.067h-20.184h-0.006h-0.004h-20.184v9.779h20.184h0.01h20.184V392.067L412.753,392.067z
						 M372.019,392.067h-20.184h-0.004h-0.004h-20.184v9.779h20.184h0.008h20.184V392.067L372.019,392.067z M331.286,392.067
						h-20.183h-0.005h-0.005H290.91v9.779h20.184h0.01h20.183V392.067L331.286,392.067z M290.555,392.067h-20.183h-0.006h-0.004
						h-20.184v9.779h20.184h0.01h20.183V392.067L290.555,392.067z M249.822,392.067h-20.183h-0.005h-0.004h-20.183v9.779h20.183
						h0.01h20.183V392.067L249.822,392.067z M209.09,392.067h-20.184h-0.004h-0.004h-20.184v9.779h20.184h0.009h20.184V392.067
						L209.09,392.067z M168.357,392.067h-20.183h-0.005h-0.004h-20.183v9.779h20.183h0.009h20.183V392.067L168.357,392.067z
						 M127.625,392.067h-20.183h-0.005h-0.004H87.248v9.779h20.184h0.009h20.183V392.067L127.625,392.067z M86.892,392.067H66.708
						h-0.004h-0.005H46.516v9.779h20.183h0.009h20.184V392.067L86.892,392.067z M473.851,381.99h-20.184h-0.004h-0.004h-20.185
						v9.779h20.185h0.008h20.184V381.99L473.851,381.99z M433.118,381.99h-20.184h-0.004h-0.004h-20.185v9.779h20.185h0.008h20.184
						V381.99L433.118,381.99z M392.386,381.99h-20.184h-0.004h-0.006h-20.182v9.779h20.182h0.01h20.184V381.99L392.386,381.99z
						 M351.653,381.99H331.47h-0.004h-0.004h-20.186v9.779h20.186h0.008h20.184V381.99L351.653,381.99z M310.921,381.99h-20.184
						h-0.004h-0.006h-20.184v9.779h20.184h0.01h20.184V381.99L310.921,381.99z M270.189,381.99h-20.184H250h-0.005h-20.183v9.779
						h20.183h0.009h20.184V381.99L270.189,381.99z M229.456,381.99h-20.183h-0.004h-0.005H189.08v9.779h20.184h0.009h20.183V381.99
						L229.456,381.99z M188.723,381.99H168.54h-0.005h-0.004h-20.184v9.779h20.184h0.009h20.183V381.99L188.723,381.99z
						 M147.991,381.99h-20.184h-0.004h-0.004h-20.184v9.779h20.184h0.009h20.184V381.99L147.991,381.99z M107.258,381.99H87.075
						H87.07h-0.004H66.882v9.779h20.184h0.009h20.183V381.99L107.258,381.99z M66.526,381.99H46.343h-0.005h-0.004H26.149v9.779
						h20.184h0.009h20.183V381.99L66.526,381.99z M453.485,371.914h-20.184h-0.004h-0.006h-20.184v9.779h20.184h0.01h20.184V371.914
						L453.485,371.914z M412.753,371.914h-20.184h-0.006h-0.004h-20.184v9.779h20.184h0.01h20.184V371.914L412.753,371.914z
						 M372.019,371.914h-20.184h-0.004h-0.004h-20.184v9.779h20.184h0.008h20.184V371.914L372.019,371.914z M331.286,371.914
						h-20.183h-0.005h-0.005H290.91v9.779h20.184h0.01h20.183V371.914L331.286,371.914z M290.555,371.914h-20.183h-0.006h-0.004
						h-20.184v9.779h20.184h0.01h20.183V371.914L290.555,371.914z M249.822,371.914h-20.183h-0.005h-0.004h-20.183v9.779h20.183
						h0.01h20.183V371.914L249.822,371.914z M209.09,371.914h-20.184h-0.004h-0.004h-20.184v9.779h20.184h0.009h20.184V371.914
						L209.09,371.914z M168.357,371.914h-20.183h-0.005h-0.004h-20.183v9.779h20.183h0.009h20.183V371.914L168.357,371.914z
						 M127.625,371.914h-20.183h-0.005h-0.004H87.248v9.779h20.184h0.009h20.183V371.914L127.625,371.914z M86.892,371.914H66.708
						h-0.004h-0.005H46.516v9.779h20.183h0.009h20.184V371.914L86.892,371.914z M473.851,361.836h-20.184h-0.004h-0.004h-20.185
						v9.779h20.185h0.008h20.184V361.836L473.851,361.836z M433.118,361.836h-20.184h-0.004h-0.004h-20.185v9.779h20.185h0.008
						h20.184V361.836L433.118,361.836z M392.386,361.836h-20.184h-0.004h-0.006h-20.182v9.779h20.182h0.01h20.184V361.836
						L392.386,361.836z M351.653,361.836H331.47h-0.004h-0.004h-20.186v9.779h20.186h0.008h20.184V361.836L351.653,361.836z
						 M310.921,361.836h-20.184h-0.004h-0.006h-20.184v9.779h20.184h0.01h20.184V361.836L310.921,361.836z M270.189,361.836h-20.184
						H250h-0.005h-20.183v9.779h20.183h0.009h20.184V361.836L270.189,361.836z M229.456,361.836h-20.183h-0.004h-0.005H189.08v9.779
						h20.184h0.009h20.183V361.836L229.456,361.836z M188.723,361.836H168.54h-0.005h-0.004h-20.184v9.779h20.184h0.009h20.183
						V361.836L188.723,361.836z M147.991,361.836h-20.184h-0.004h-0.004h-20.184v9.779h20.184h0.009h20.184V361.836L147.991,361.836
						z M107.258,361.836H87.075H87.07h-0.004H66.882v9.779h20.184h0.009h20.183V361.836L107.258,361.836z M66.526,361.836H46.343
						h-0.005h-0.004H26.149v9.779h20.184h0.009h20.183V361.836L66.526,361.836z M453.485,351.759h-20.184h-0.004h-0.006h-20.184
						v9.779h20.184h0.01h20.184V351.759L453.485,351.759z M412.753,351.759h-20.184h-0.006h-0.004h-20.184v9.779h20.184h0.01h20.184
						V351.759L412.753,351.759z M372.019,351.759h-20.184h-0.004h-0.004h-20.184v9.779h20.184h0.008h20.184V351.759L372.019,351.759
						z M331.286,351.759h-20.183h-0.005h-0.005H290.91v9.779h20.184h0.01h20.183V351.759L331.286,351.759z M290.555,351.759h-20.183
						h-0.006h-0.004h-20.184v9.779h20.184h0.01h20.183V351.759L290.555,351.759z M249.822,351.759h-20.183h-0.005h-0.004h-20.183
						v9.779h20.183h0.01h20.183V351.759L249.822,351.759z M209.09,351.759h-20.184h-0.004h-0.004h-20.184v9.779h20.184h0.009h20.184
						V351.759L209.09,351.759z M168.357,351.759h-20.183h-0.005h-0.004h-20.183v9.779h20.183h0.009h20.183V351.759L168.357,351.759z
						 M127.625,351.759h-20.183h-0.005h-0.004H87.248v9.779h20.184h0.009h20.183V351.759L127.625,351.759z M86.892,351.759H66.708
						h-0.004h-0.005H46.516v9.779h20.183h0.009h20.184V351.759L86.892,351.759z M473.851,341.683h-20.184h-0.004h-0.004h-20.185
						v9.779h20.185h0.008h20.184V341.683L473.851,341.683z M433.118,341.683h-20.184h-0.004h-0.004h-20.185v9.779h20.185h0.008
						h20.184V341.683L433.118,341.683z M392.386,341.683h-20.184h-0.004h-0.006h-20.182v9.779h20.182h0.01h20.184V341.683
						L392.386,341.683z M351.653,341.683H331.47h-0.004h-0.004h-20.186v9.779h20.186h0.008h20.184V341.683L351.653,341.683z
						 M310.921,341.683h-20.184h-0.004h-0.006h-20.184v9.779h20.184h0.01h20.184V341.683L310.921,341.683z M270.189,341.683h-20.184
						H250h-0.005h-20.183v9.779h20.183h0.009h20.184V341.683L270.189,341.683z M229.456,341.683h-20.183h-0.004h-0.005H189.08v9.779
						h20.184h0.009h20.183V341.683L229.456,341.683z M188.723,341.683H168.54h-0.005h-0.004h-20.184v9.779h20.184h0.009h20.183
						V341.683L188.723,341.683z M147.991,341.683h-20.184h-0.004h-0.004h-20.184v9.779h20.184h0.009h20.184V341.683L147.991,341.683
						z M107.258,341.683H87.075H87.07h-0.004H66.882v9.779h20.184h0.009h20.183V341.683L107.258,341.683z M66.526,341.683H46.343
						h-0.005h-0.004H26.149v9.779h20.184h0.009h20.183V341.683L66.526,341.683z M453.485,331.607h-20.184h-0.004h-0.006h-20.184
						v9.779h20.184h0.01h20.184V331.607L453.485,331.607z M412.753,331.607h-20.184h-0.006h-0.004h-20.184v9.779h20.184h0.01h20.184
						V331.607L412.753,331.607z M372.019,331.607h-20.184h-0.004h-0.004h-20.184v9.779h20.184h0.008h20.184V331.607L372.019,331.607
						z M331.286,331.607h-20.183h-0.005h-0.005H290.91v9.779h20.184h0.01h20.183V331.607L331.286,331.607z M290.555,331.607h-20.183
						h-0.006h-0.004h-20.184v9.779h20.184h0.01h20.183V331.607L290.555,331.607z M249.822,331.607h-20.183h-0.005h-0.004h-20.183
						v9.779h20.183h0.01h20.183V331.607L249.822,331.607z M209.09,331.607h-20.184h-0.004h-0.004h-20.184v9.779h20.184h0.009h20.184
						V331.607L209.09,331.607z M168.357,331.607h-20.183h-0.005h-0.004h-20.183v9.779h20.183h0.009h20.183V331.607L168.357,331.607z
						 M127.625,331.607h-20.183h-0.005h-0.004H87.248v9.779h20.184h0.009h20.183V331.607L127.625,331.607z M86.892,331.607H66.708
						h-0.004h-0.005H46.516v9.779h20.183h0.009h20.184V331.607L86.892,331.607z M473.851,321.53h-20.184h-0.004h-0.004h-20.185
						v9.779h20.185h0.008h20.184V321.53L473.851,321.53z M433.118,321.53h-20.184h-0.004h-0.004h-20.185v9.779h20.185h0.008h20.184
						V321.53L433.118,321.53z M392.386,321.53h-20.184h-0.004h-0.006h-20.182v9.779h20.182h0.01h20.184V321.53L392.386,321.53z
						 M351.653,321.53H331.47h-0.004h-0.004h-20.186v9.779h20.186h0.008h20.184V321.53L351.653,321.53z M310.921,321.53h-20.184
						h-0.004h-0.006h-20.184v9.779h20.184h0.01h20.184V321.53L310.921,321.53z M270.189,321.53h-20.184H250h-0.005h-20.183v9.779
						h20.183h0.009h20.184V321.53L270.189,321.53z M229.456,321.53h-20.183h-0.004h-0.005H189.08v9.779h20.184h0.009h20.183V321.53
						L229.456,321.53z M188.723,321.53H168.54h-0.005h-0.004h-20.184v9.779h20.184h0.009h20.183V321.53L188.723,321.53z
						 M147.991,321.53h-20.184h-0.004h-0.004h-20.184v9.779h20.184h0.009h20.184V321.53L147.991,321.53z M107.258,321.53H87.075
						H87.07h-0.004H66.882v9.779h20.184h0.009h20.183V321.53L107.258,321.53z M66.526,321.53H46.343h-0.005h-0.004H26.149v9.779
						h20.184h0.009h20.183V321.53L66.526,321.53z M453.485,311.453h-20.184h-0.004h-0.006h-20.184v9.779h20.184h0.01h20.184V311.453
						L453.485,311.453z M412.753,311.453h-20.184h-0.006h-0.004h-20.184v9.779h20.184h0.01h20.184V311.453L412.753,311.453z
						 M372.019,311.453h-20.184h-0.004h-0.004h-20.184v9.779h20.184h0.008h20.184V311.453L372.019,311.453z M331.286,311.453
						h-20.183h-0.005h-0.005H290.91v9.779h20.184h0.01h20.183V311.453L331.286,311.453z M290.555,311.453h-20.183h-0.006h-0.004
						h-20.184v9.779h20.184h0.01h20.183V311.453L290.555,311.453z M249.822,311.453h-20.183h-0.005h-0.004h-20.183v9.779h20.183
						h0.01h20.183V311.453L249.822,311.453z M209.09,311.453h-20.184h-0.004h-0.004h-20.184v9.779h20.184h0.009h20.184V311.453
						L209.09,311.453z M168.357,311.453h-20.183h-0.005h-0.004h-20.183v9.779h20.183h0.009h20.183V311.453L168.357,311.453z
						 M127.625,311.453h-20.183h-0.005h-0.004H87.248v9.779h20.184h0.009h20.183V311.453L127.625,311.453z M86.892,311.453H66.708
						h-0.004h-0.005H46.516v9.779h20.183h0.009h20.184V311.453L86.892,311.453z M473.851,301.376h-20.184h-0.004h-0.004h-20.185
						v9.779h20.185h0.008h20.184V301.376L473.851,301.376z M433.118,301.376h-20.184h-0.004h-0.004h-20.185v9.779h20.185h0.008
						h20.184V301.376L433.118,301.376z M392.386,301.376h-20.184h-0.004h-0.006h-20.182v9.779h20.182h0.01h20.184V301.376
						L392.386,301.376z M351.653,301.376H331.47h-0.004h-0.004h-20.186v9.779h20.186h0.008h20.184V301.376L351.653,301.376z
						 M310.921,301.376h-20.184h-0.004h-0.006h-20.184v9.779h20.184h0.01h20.184V301.376L310.921,301.376z M270.189,301.376h-20.184
						H250h-0.005h-20.183v9.779h20.183h0.009h20.184V301.376L270.189,301.376z M229.456,301.376h-20.183h-0.004h-0.005H189.08v9.779
						h20.184h0.009h20.183V301.376L229.456,301.376z M188.723,301.376H168.54h-0.005h-0.004h-20.184v9.779h20.184h0.009h20.183
						V301.376L188.723,301.376z M147.991,301.376h-20.184h-0.004h-0.004h-20.184v9.779h20.184h0.009h20.184V301.376L147.991,301.376
						z M107.258,301.376H87.075H87.07h-0.004H66.882v9.779h20.184h0.009h20.183V301.376L107.258,301.376z M66.526,301.376H46.343
						h-0.005h-0.004H26.149v9.779h20.184h0.009h20.183V301.376L66.526,301.376z M453.485,291.299h-20.184h-0.004h-0.006h-20.184
						v9.779h20.184h0.01h20.184V291.299L453.485,291.299z M412.753,291.299h-20.184h-0.006h-0.004h-20.184v9.779h20.184h0.01h20.184
						V291.299L412.753,291.299z M372.019,291.299h-20.184h-0.004h-0.004h-20.184v9.779h20.184h0.008h20.184V291.299L372.019,291.299
						z M331.286,291.299h-20.183h-0.005h-0.005H290.91v9.779h20.184h0.01h20.183V291.299L331.286,291.299z M290.555,291.299h-20.183
						h-0.006h-0.004h-20.184v9.779h20.184h0.01h20.183V291.299L290.555,291.299z M249.822,291.299h-20.183h-0.005h-0.004h-20.183
						v9.779h20.183h0.01h20.183V291.299L249.822,291.299z M209.09,291.299h-20.184h-0.004h-0.004h-20.184v9.779h20.184h0.009h20.184
						V291.299L209.09,291.299z M168.357,291.299h-20.183h-0.005h-0.004h-20.183v9.779h20.183h0.009h20.183V291.299L168.357,291.299z
						 M127.625,291.299h-20.183h-0.005h-0.004H87.248v9.779h20.184h0.009h20.183V291.299L127.625,291.299z M86.892,291.299H66.708
						h-0.004h-0.005H46.516v9.779h20.183h0.009h20.184V291.299L86.892,291.299z M473.851,281.222h-20.184h-0.004h-0.004h-20.185
						v9.779h20.185h0.008h20.184V281.222L473.851,281.222z M433.118,281.222h-20.184h-0.004h-0.004h-20.185v9.779h20.185h0.008
						h20.184V281.222L433.118,281.222z M392.386,281.222h-20.184h-0.004h-0.006h-20.182v9.779h20.182h0.01h20.184V281.222
						L392.386,281.222z M351.653,281.222H331.47h-0.004h-0.004h-20.186v9.779h20.186h0.008h20.184V281.222L351.653,281.222z
						 M310.921,281.222h-20.184h-0.004h-0.006h-20.184v9.779h20.184h0.01h20.184V281.222L310.921,281.222z M270.189,281.222h-20.184
						H250h-0.005h-20.183v9.779h20.183h0.009h20.184V281.222L270.189,281.222z M229.456,281.222h-20.183h-0.004h-0.005H189.08v9.779
						h20.184h0.009h20.183V281.222L229.456,281.222z M188.723,281.222H168.54h-0.005h-0.004h-20.184v9.779h20.184h0.009h20.183
						V281.222L188.723,281.222z M147.991,281.222h-20.184h-0.004h-0.004h-20.184v9.779h20.184h0.009h20.184V281.222L147.991,281.222
						z M107.258,281.222H87.075H87.07h-0.004H66.882v9.779h20.184h0.009h20.183V281.222L107.258,281.222z M66.526,281.222H46.343
						h-0.005h-0.004H26.149v9.779h20.184h0.009h20.183V281.222L66.526,281.222z M453.485,271.146h-20.184h-0.004h-0.006h-20.184
						v9.779h20.184h0.01h20.184V271.146L453.485,271.146z M412.753,271.146h-20.184h-0.006h-0.004h-20.184v9.779h20.184h0.01h20.184
						V271.146L412.753,271.146z M372.019,271.146h-20.184h-0.004h-0.004h-20.184v9.779h20.184h0.008h20.184V271.146L372.019,271.146
						z M331.286,271.146h-20.183h-0.005h-0.005H290.91v9.779h20.184h0.01h20.183V271.146L331.286,271.146z M290.555,271.146h-20.183
						h-0.006h-0.004h-20.184v9.779h20.184h0.01h20.183V271.146L290.555,271.146z M249.822,271.146h-20.183h-0.005h-0.004h-20.183
						v9.779h20.183h0.01h20.183V271.146L249.822,271.146z M209.09,271.146h-20.184h-0.004h-0.004h-20.184v9.779h20.184h0.009h20.184
						V271.146L209.09,271.146z M168.357,271.146h-20.183h-0.005h-0.004h-20.183v9.779h20.183h0.009h20.183V271.146L168.357,271.146z
						 M127.625,271.146h-20.183h-0.005h-0.004H87.248v9.779h20.184h0.009h20.183V271.146L127.625,271.146z M86.892,271.146H66.708
						h-0.004h-0.005H46.516v9.779h20.183h0.009h20.184V271.146L86.892,271.146z M473.851,261.069h-20.184h-0.004h-0.004h-20.185
						v9.779h20.185h0.008h20.184V261.069L473.851,261.069z M433.118,261.069h-20.184h-0.004h-0.004h-20.185v9.779h20.185h0.008
						h20.184V261.069L433.118,261.069z M392.386,261.069h-20.184h-0.004h-0.006h-20.182v9.779h20.182h0.01h20.184V261.069
						L392.386,261.069z M351.653,261.069H331.47h-0.004h-0.004h-20.186v9.779h20.186h0.008h20.184V261.069L351.653,261.069z
						 M310.921,261.069h-20.184h-0.004h-0.006h-20.184v9.779h20.184h0.01h20.184V261.069L310.921,261.069z M270.189,261.069h-20.184
						H250h-0.005h-20.183v9.779h20.183h0.009h20.184V261.069L270.189,261.069z M229.456,261.069h-20.183h-0.004h-0.005H189.08v9.779
						h20.184h0.009h20.183V261.069L229.456,261.069z M188.723,261.069H168.54h-0.005h-0.004h-20.184v9.779h20.184h0.009h20.183
						V261.069L188.723,261.069z M147.991,261.069h-20.184h-0.004h-0.004h-20.184v9.779h20.184h0.009h20.184V261.069L147.991,261.069
						z M107.258,261.069H87.075H87.07h-0.004H66.882v9.779h20.184h0.009h20.183V261.069L107.258,261.069z M66.526,261.069H46.343
						h-0.005h-0.004H26.149v9.779h20.184h0.009h20.183V261.069L66.526,261.069z M453.485,250.992h-20.184h-0.004h-0.006h-20.184
						v9.78h20.184h0.01h20.184V250.992L453.485,250.992z M412.753,250.992h-20.184h-0.006h-0.004h-20.184v9.78h20.184h0.01h20.184
						V250.992L412.753,250.992z M372.019,250.992h-20.184h-0.004h-0.004h-20.184v9.78h20.184h0.008h20.184V250.992L372.019,250.992z
						 M331.286,250.992h-20.183h-0.005h-0.005H290.91v9.78h20.184h0.01h20.183V250.992L331.286,250.992z M290.555,250.992h-20.183
						h-0.006h-0.004h-20.184v9.78h20.184h0.01h20.183V250.992L290.555,250.992z M249.822,250.992h-20.183h-0.005h-0.004h-20.183
						v9.78h20.183h0.01h20.183V250.992L249.822,250.992z M209.09,250.992h-20.184h-0.004h-0.004h-20.184v9.78h20.184h0.009h20.184
						V250.992L209.09,250.992z M168.357,250.992h-20.183h-0.005h-0.004h-20.183v9.78h20.183h0.009h20.183V250.992L168.357,250.992z
						 M127.625,250.992h-20.183h-0.005h-0.004H87.248v9.78h20.184h0.009h20.183V250.992L127.625,250.992z M86.892,250.992H66.708
						h-0.004h-0.005H46.516v9.78h20.183h0.009h20.184V250.992L86.892,250.992z M473.851,240.916h-20.184h-0.004h-0.004h-20.185
						v9.779h20.185h0.008h20.184V240.916L473.851,240.916z M433.118,240.916h-20.184h-0.004h-0.004h-20.185v9.779h20.185h0.008
						h20.184V240.916L433.118,240.916z M392.386,240.916h-20.184h-0.004h-0.006h-20.182v9.779h20.182h0.01h20.184V240.916
						L392.386,240.916z M351.653,240.916H331.47h-0.004h-0.004h-20.186v9.779h20.186h0.008h20.184V240.916L351.653,240.916z
						 M310.921,240.916h-20.184h-0.004h-0.006h-20.184v9.779h20.184h0.01h20.184V240.916L310.921,240.916z M270.189,240.916h-20.184
						H250h-0.005h-20.183v9.779h20.183h0.009h20.184V240.916L270.189,240.916z M229.456,240.916h-20.183h-0.004h-0.005H189.08v9.779
						h20.184h0.009h20.183V240.916L229.456,240.916z M188.723,240.916H168.54h-0.005h-0.004h-20.184v9.779h20.184h0.009h20.183
						V240.916L188.723,240.916z M147.991,240.916h-20.184h-0.004h-0.004h-20.184v9.779h20.184h0.009h20.184V240.916L147.991,240.916
						z M107.258,240.916H87.075H87.07h-0.004H66.882v9.779h20.184h0.009h20.183V240.916L107.258,240.916z M66.526,240.916H46.343
						h-0.005h-0.004H26.149v9.779h20.184h0.009h20.183V240.916L66.526,240.916z M453.485,230.839h-20.184h-0.004h-0.006h-20.184
						v9.779h20.184h0.01h20.184V230.839L453.485,230.839z M412.753,230.839h-20.184h-0.006h-0.004h-20.184v9.779h20.184h0.01h20.184
						V230.839L412.753,230.839z M372.019,230.839h-20.184h-0.004h-0.004h-20.184v9.779h20.184h0.008h20.184V230.839L372.019,230.839
						z M331.286,230.839h-20.183h-0.005h-0.005H290.91v9.779h20.184h0.01h20.183V230.839L331.286,230.839z M290.555,230.839h-20.183
						h-0.006h-0.004h-20.184v9.779h20.184h0.01h20.183V230.839L290.555,230.839z M249.822,230.839h-20.183h-0.005h-0.004h-20.183
						v9.779h20.183h0.01h20.183V230.839L249.822,230.839z M209.09,230.839h-20.184h-0.004h-0.004h-20.184v9.779h20.184h0.009h20.184
						V230.839L209.09,230.839z M168.357,230.839h-20.183h-0.005h-0.004h-20.183v9.779h20.183h0.009h20.183V230.839L168.357,230.839z
						 M127.625,230.839h-20.183h-0.005h-0.004H87.248v9.779h20.184h0.009h20.183V230.839L127.625,230.839z M86.892,230.839H66.708
						h-0.004h-0.005H46.516v9.779h20.183h0.009h20.184V230.839L86.892,230.839z M473.851,220.762h-20.184h-0.004h-0.004h-20.185
						v9.779h20.185h0.008h20.184V220.762L473.851,220.762z M433.118,220.762h-20.184h-0.004h-0.004h-20.185v9.779h20.185h0.008
						h20.184V220.762L433.118,220.762z M392.386,220.762h-20.184h-0.004h-0.006h-20.182v9.779h20.182h0.01h20.184V220.762
						L392.386,220.762z M351.653,220.762H331.47h-0.004h-0.004h-20.186v9.779h20.186h0.008h20.184V220.762L351.653,220.762z
						 M310.921,220.762h-20.184h-0.004h-0.006h-20.184v9.779h20.184h0.01h20.184V220.762L310.921,220.762z M270.189,220.762h-20.184
						H250h-0.005h-20.183v9.779h20.183h0.009h20.184V220.762L270.189,220.762z M229.456,220.762h-20.183h-0.004h-0.005H189.08v9.779
						h20.184h0.009h20.183V220.762L229.456,220.762z M188.723,220.762H168.54h-0.005h-0.004h-20.184v9.779h20.184h0.009h20.183
						V220.762L188.723,220.762z M147.991,220.762h-20.184h-0.004h-0.004h-20.184v9.779h20.184h0.009h20.184V220.762L147.991,220.762
						z M107.258,220.762H87.075H87.07h-0.004H66.882v9.779h20.184h0.009h20.183V220.762L107.258,220.762z M66.526,220.762H46.343
						h-0.005h-0.004H26.149v9.779h20.184h0.009h20.183V220.762L66.526,220.762z M453.485,210.685h-20.184h-0.004h-0.006h-20.184
						v9.779h20.184h0.01h20.184V210.685L453.485,210.685z M412.753,210.685h-20.184h-0.006h-0.004h-20.184v9.779h20.184h0.01h20.184
						V210.685L412.753,210.685z M372.019,210.685h-20.184h-0.004h-0.004h-20.184v9.779h20.184h0.008h20.184V210.685L372.019,210.685
						z M331.286,210.685h-20.183h-0.005h-0.005H290.91v9.779h20.184h0.01h20.183V210.685L331.286,210.685z M290.555,210.685h-20.183
						h-0.006h-0.004h-20.184v9.779h20.184h0.01h20.183V210.685L290.555,210.685z M249.822,210.685h-20.183h-0.005h-0.004h-20.183
						v9.779h20.183h0.01h20.183V210.685L249.822,210.685z M209.09,210.685h-20.184h-0.004h-0.004h-20.184v9.779h20.184h0.009h20.184
						V210.685L209.09,210.685z M168.357,210.685h-20.183h-0.005h-0.004h-20.183v9.779h20.183h0.009h20.183V210.685L168.357,210.685z
						 M127.625,210.685h-20.183h-0.005h-0.004H87.248v9.779h20.184h0.009h20.183V210.685L127.625,210.685z M86.892,210.685H66.708
						h-0.004h-0.005H46.516v9.779h20.183h0.009h20.184V210.685L86.892,210.685z M473.851,200.608h-20.184h-0.004h-0.004h-20.185
						v9.779h20.185h0.008h20.184V200.608L473.851,200.608z M433.118,200.608h-20.184h-0.004h-0.004h-20.185v9.779h20.185h0.008
						h20.184V200.608L433.118,200.608z M392.386,200.608h-20.184h-0.004h-0.006h-20.182v9.779h20.182h0.01h20.184V200.608
						L392.386,200.608z M351.653,200.608H331.47h-0.004h-0.004h-20.186v9.779h20.186h0.008h20.184V200.608L351.653,200.608z
						 M310.921,200.608h-20.184h-0.004h-0.006h-20.184v9.779h20.184h0.01h20.184V200.608L310.921,200.608z M270.189,200.608h-20.184
						H250h-0.005h-20.183v9.779h20.183h0.009h20.184V200.608L270.189,200.608z M229.456,200.608h-20.183h-0.004h-0.005H189.08v9.779
						h20.184h0.009h20.183V200.608L229.456,200.608z M188.723,200.608H168.54h-0.005h-0.004h-20.184v9.779h20.184h0.009h20.183
						V200.608L188.723,200.608z M147.991,200.608h-20.184h-0.004h-0.004h-20.184v9.779h20.184h0.009h20.184V200.608L147.991,200.608
						z M107.258,200.608H87.075H87.07h-0.004H66.882v9.779h20.184h0.009h20.183V200.608L107.258,200.608z M66.526,200.608H46.343
						h-0.005h-0.004H26.149v9.779h20.184h0.009h20.183V200.608L66.526,200.608z M453.485,190.532h-20.184h-0.004h-0.006h-20.184
						v9.779h20.184h0.01h20.184V190.532L453.485,190.532z M412.753,190.532h-20.184h-0.006h-0.004h-20.184v9.779h20.184h0.01h20.184
						V190.532L412.753,190.532z M372.019,190.532h-20.184h-0.004h-0.004h-20.184v9.779h20.184h0.008h20.184V190.532L372.019,190.532
						z M331.286,190.532h-20.183h-0.005h-0.005H290.91v9.779h20.184h0.01h20.183V190.532L331.286,190.532z M290.555,190.532h-20.183
						h-0.006h-0.004h-20.184v9.779h20.184h0.01h20.183V190.532L290.555,190.532z M249.822,190.532h-20.183h-0.005h-0.004h-20.183
						v9.779h20.183h0.01h20.183V190.532L249.822,190.532z M209.09,190.532h-20.184h-0.004h-0.004h-20.184v9.779h20.184h0.009h20.184
						V190.532L209.09,190.532z M168.357,190.532h-20.183h-0.005h-0.004h-20.183v9.779h20.183h0.009h20.183V190.532L168.357,190.532z
						 M127.625,190.532h-20.183h-0.005h-0.004H87.248v9.779h20.184h0.009h20.183V190.532L127.625,190.532z M86.892,190.532H66.708
						h-0.004h-0.005H46.516v9.779h20.183h0.009h20.184V190.532L86.892,190.532z M473.851,180.455h-20.184h-0.004h-0.004h-20.185
						v9.779h20.185h0.008h20.184V180.455L473.851,180.455z M433.118,180.455h-20.184h-0.004h-0.004h-20.185v9.779h20.185h0.008
						h20.184V180.455L433.118,180.455z M392.386,180.455h-20.184h-0.004h-0.006h-20.182v9.779h20.182h0.01h20.184V180.455
						L392.386,180.455z M351.653,180.455H331.47h-0.004h-0.004h-20.186v9.779h20.186h0.008h20.184V180.455L351.653,180.455z
						 M310.921,180.455h-20.184h-0.004h-0.006h-20.184v9.779h20.184h0.01h20.184V180.455L310.921,180.455z M270.189,180.455h-20.184
						H250h-0.005h-20.183v9.779h20.183h0.009h20.184V180.455L270.189,180.455z M229.456,180.455h-20.183h-0.004h-0.005H189.08v9.779
						h20.184h0.009h20.183V180.455L229.456,180.455z M188.723,180.455H168.54h-0.005h-0.004h-20.184v9.779h20.184h0.009h20.183
						V180.455L188.723,180.455z M147.991,180.455h-20.184h-0.004h-0.004h-20.184v9.779h20.184h0.009h20.184V180.455L147.991,180.455
						z M107.258,180.455H87.075H87.07h-0.004H66.882v9.779h20.184h0.009h20.183V180.455L107.258,180.455z M66.526,180.455H46.343
						h-0.005h-0.004H26.149v9.779h20.184h0.009h20.183V180.455L66.526,180.455z M453.485,170.378h-20.184h-0.004h-0.006h-20.184
						v9.779h20.184h0.01h20.184V170.378L453.485,170.378z M412.753,170.378h-20.184h-0.006h-0.004h-20.184v9.779h20.184h0.01h20.184
						V170.378L412.753,170.378z M372.019,170.378h-20.184h-0.004h-0.004h-20.184v9.779h20.184h0.008h20.184V170.378L372.019,170.378
						z M331.286,170.378h-20.183h-0.005h-0.005H290.91v9.779h20.184h0.01h20.183V170.378L331.286,170.378z M290.555,170.378h-20.183
						h-0.006h-0.004h-20.184v9.779h20.184h0.01h20.183V170.378L290.555,170.378z M249.822,170.378h-20.183h-0.005h-0.004h-20.183
						v9.779h20.183h0.01h20.183V170.378L249.822,170.378z M209.09,170.378h-20.184h-0.004h-0.004h-20.184v9.779h20.184h0.009h20.184
						V170.378L209.09,170.378z M168.357,170.378h-20.183h-0.005h-0.004h-20.183v9.779h20.183h0.009h20.183V170.378L168.357,170.378z
						 M127.625,170.378h-20.183h-0.005h-0.004H87.248v9.779h20.184h0.009h20.183V170.378L127.625,170.378z M86.892,170.378H66.708
						h-0.004h-0.005H46.516v9.779h20.183h0.009h20.184V170.378L86.892,170.378z M473.851,160.301h-20.184h-0.004h-0.004h-20.185
						v9.779h20.185h0.008h20.184V160.301L473.851,160.301z M433.118,160.301h-20.184h-0.004h-0.004h-20.185v9.779h20.185h0.008
						h20.184V160.301L433.118,160.301z M392.386,160.301h-20.184h-0.004h-0.006h-20.182v9.779h20.182h0.01h20.184V160.301
						L392.386,160.301z M351.653,160.301H331.47h-0.004h-0.004h-20.186v9.779h20.186h0.008h20.184V160.301L351.653,160.301z
						 M310.921,160.301h-20.184h-0.004h-0.006h-20.184v9.779h20.184h0.01h20.184V160.301L310.921,160.301z M270.189,160.301h-20.184
						H250h-0.005h-20.183v9.779h20.183h0.009h20.184V160.301L270.189,160.301z M229.456,160.301h-20.183h-0.004h-0.005H189.08v9.779
						h20.184h0.009h20.183V160.301L229.456,160.301z M188.723,160.301H168.54h-0.005h-0.004h-20.184v9.779h20.184h0.009h20.183
						V160.301L188.723,160.301z M147.991,160.301h-20.184h-0.004h-0.004h-20.184v9.779h20.184h0.009h20.184V160.301L147.991,160.301
						z M107.258,160.301H87.075H87.07h-0.004H66.882v9.779h20.184h0.009h20.183V160.301L107.258,160.301z M66.526,160.301H46.343
						h-0.005h-0.004H26.149v9.779h20.184h0.009h20.183V160.301L66.526,160.301z M453.485,150.225h-20.184h-0.004h-0.006h-20.184
						v9.779h20.184h0.01h20.184V150.225L453.485,150.225z M412.753,150.225h-20.184h-0.006h-0.004h-20.184v9.779h20.184h0.01h20.184
						V150.225L412.753,150.225z M372.019,150.225h-20.184h-0.004h-0.004h-20.184v9.779h20.184h0.008h20.184V150.225L372.019,150.225
						z M331.286,150.225h-20.183h-0.005h-0.005H290.91v9.779h20.184h0.01h20.183V150.225L331.286,150.225z M290.555,150.225h-20.183
						h-0.006h-0.004h-20.184v9.779h20.184h0.01h20.183V150.225L290.555,150.225z M249.822,150.225h-20.183h-0.005h-0.004h-20.183
						v9.779h20.183h0.01h20.183V150.225L249.822,150.225z M209.09,150.225h-20.184h-0.004h-0.004h-20.184v9.779h20.184h0.009h20.184
						V150.225L209.09,150.225z M168.357,150.225h-20.183h-0.005h-0.004h-20.183v9.779h20.183h0.009h20.183V150.225L168.357,150.225z
						 M127.625,150.225h-20.183h-0.005h-0.004H87.248v9.779h20.184h0.009h20.183V150.225L127.625,150.225z M86.892,150.225H66.708
						h-0.004h-0.005H46.516v9.779h20.183h0.009h20.184V150.225L86.892,150.225z M473.851,140.148h-20.184h-0.004h-0.004h-20.185
						v9.779h20.185h0.008h20.184V140.148L473.851,140.148z M433.118,140.148h-20.184h-0.004h-0.004h-20.185v9.779h20.185h0.008
						h20.184V140.148L433.118,140.148z M392.386,140.148h-20.184h-0.004h-0.006h-20.182v9.779h20.182h0.01h20.184V140.148
						L392.386,140.148z M351.653,140.148H331.47h-0.004h-0.004h-20.186v9.779h20.186h0.008h20.184V140.148L351.653,140.148z
						 M310.921,140.148h-20.184h-0.004h-0.006h-20.184v9.779h20.184h0.01h20.184V140.148L310.921,140.148z M270.189,140.148h-20.184
						H250h-0.005h-20.183v9.779h20.183h0.009h20.184V140.148L270.189,140.148z M229.456,140.148h-20.183h-0.004h-0.005H189.08v9.779
						h20.184h0.009h20.183V140.148L229.456,140.148z M188.723,140.148H168.54h-0.005h-0.004h-20.184v9.779h20.184h0.009h20.183
						V140.148L188.723,140.148z M147.991,140.148h-20.184h-0.004h-0.004h-20.184v9.779h20.184h0.009h20.184V140.148L147.991,140.148
						z M107.258,140.148H87.075H87.07h-0.004H66.882v9.779h20.184h0.009h20.183V140.148L107.258,140.148z M66.526,140.148H46.343
						h-0.005h-0.004H26.149v9.779h20.184h0.009h20.183V140.148L66.526,140.148z M453.485,130.071h-20.184h-0.004h-0.006h-20.184
						v9.779h20.184h0.01h20.184V130.071L453.485,130.071z M412.753,130.071h-20.184h-0.006h-0.004h-20.184v9.779h20.184h0.01h20.184
						V130.071L412.753,130.071z M372.019,130.071h-20.184h-0.004h-0.004h-20.184v9.779h20.184h0.008h20.184V130.071L372.019,130.071
						z M331.286,130.071h-20.183h-0.005h-0.005H290.91v9.779h20.184h0.01h20.183V130.071L331.286,130.071z M290.555,130.071h-20.183
						h-0.006h-0.004h-20.184v9.779h20.184h0.01h20.183V130.071L290.555,130.071z M249.822,130.071h-20.183h-0.005h-0.004h-20.183
						v9.779h20.183h0.01h20.183V130.071L249.822,130.071z M209.09,130.071h-20.184h-0.004h-0.004h-20.184v9.779h20.184h0.009h20.184
						V130.071L209.09,130.071z M168.357,130.071h-20.183h-0.005h-0.004h-20.183v9.779h20.183h0.009h20.183V130.071L168.357,130.071z
						 M127.625,130.071h-20.183h-0.005h-0.004H87.248v9.779h20.184h0.009h20.183V130.071L127.625,130.071z M86.892,130.071H66.708
						h-0.004h-0.005H46.516v9.779h20.183h0.009h20.184V130.071L86.892,130.071z M473.851,119.995h-20.184h-0.004h-0.004h-20.185
						v9.779h20.185h0.008h20.184V119.995L473.851,119.995z M433.118,119.995h-20.184h-0.004h-0.004h-20.185v9.779h20.185h0.008
						h20.184V119.995L433.118,119.995z M392.386,119.995h-20.184h-0.004h-0.006h-20.182v9.779h20.182h0.01h20.184V119.995
						L392.386,119.995z M351.653,119.995H331.47h-0.004h-0.004h-20.186v9.779h20.186h0.008h20.184V119.995L351.653,119.995z
						 M310.921,119.995h-20.184h-0.004h-0.006h-20.184v9.779h20.184h0.01h20.184V119.995L310.921,119.995z M270.189,119.995h-20.184
						H250h-0.005h-20.183v9.779h20.183h0.009h20.184V119.995L270.189,119.995z M229.456,119.995h-20.183h-0.004h-0.005H189.08v9.779
						h20.184h0.009h20.183V119.995L229.456,119.995z M188.723,119.995H168.54h-0.005h-0.004h-20.184v9.779h20.184h0.009h20.183
						V119.995L188.723,119.995z M147.991,119.995h-20.184h-0.004h-0.004h-20.184v9.779h20.184h0.009h20.184V119.995L147.991,119.995
						z M107.258,119.995H87.075H87.07h-0.004H66.882v9.779h20.184h0.009h20.183V119.995L107.258,119.995z M66.526,119.995H46.343
						h-0.005h-0.004H26.149v9.779h20.184h0.009h20.183V119.995L66.526,119.995z M453.485,109.918h-20.184h-0.004h-0.006h-20.184
						v9.779h20.184h0.01h20.184V109.918L453.485,109.918z M412.753,109.918h-20.184h-0.006h-0.004h-20.184v9.779h20.184h0.01h20.184
						V109.918L412.753,109.918z M372.019,109.918h-20.184h-0.004h-0.004h-20.184v9.779h20.184h0.008h20.184V109.918L372.019,109.918
						z M331.286,109.918h-20.183h-0.005h-0.005H290.91v9.779h20.184h0.01h20.183V109.918L331.286,109.918z M290.555,109.918h-20.183
						h-0.006h-0.004h-20.184v9.779h20.184h0.01h20.183V109.918L290.555,109.918z M249.822,109.918h-20.183h-0.005h-0.004h-20.183
						v9.779h20.183h0.01h20.183V109.918L249.822,109.918z M209.09,109.918h-20.184h-0.004h-0.004h-20.184v9.779h20.184h0.009h20.184
						V109.918L209.09,109.918z M168.357,109.918h-20.183h-0.005h-0.004h-20.183v9.779h20.183h0.009h20.183V109.918L168.357,109.918z
						 M127.625,109.918h-20.183h-0.005h-0.004H87.248v9.779h20.184h0.009h20.183V109.918L127.625,109.918z M86.892,109.918H66.708
						h-0.004h-0.005H46.516v9.779h20.183h0.009h20.184V109.918L86.892,109.918z M473.851,99.841h-20.184h-0.004h-0.004h-20.185
						v9.779h20.185h0.008h20.184V99.841L473.851,99.841z M433.118,99.841h-20.184h-0.004h-0.004h-20.185v9.779h20.185h0.008h20.184
						V99.841L433.118,99.841z M392.386,99.841h-20.184h-0.004h-0.006h-20.182v9.779h20.182h0.01h20.184V99.841L392.386,99.841z
						 M351.653,99.841H331.47h-0.004h-0.004h-20.186v9.779h20.186h0.008h20.184V99.841L351.653,99.841z M310.921,99.841h-20.184
						h-0.004h-0.006h-20.184v9.779h20.184h0.01h20.184V99.841L310.921,99.841z M270.189,99.841h-20.184H250h-0.005h-20.183v9.779
						h20.183h0.009h20.184V99.841L270.189,99.841z M229.456,99.841h-20.183h-0.004h-0.005H189.08v9.779h20.184h0.009h20.183V99.841
						L229.456,99.841z M188.723,99.841H168.54h-0.005h-0.004h-20.184v9.779h20.184h0.009h20.183V99.841L188.723,99.841z
						 M147.991,99.841h-20.184h-0.004h-0.004h-20.184v9.779h20.184h0.009h20.184V99.841L147.991,99.841z M107.258,99.841H87.075
						H87.07h-0.004H66.882v9.779h20.184h0.009h20.183V99.841L107.258,99.841z M66.526,99.841H46.343h-0.005h-0.004H26.149v9.779
						h20.184h0.009h20.183V99.841L66.526,99.841z M453.485,89.764h-20.184h-0.004h-0.006h-20.184v9.779h20.184h0.01h20.184V89.764
						L453.485,89.764z M412.753,89.764h-20.184h-0.006h-0.004h-20.184v9.779h20.184h0.01h20.184V89.764L412.753,89.764z
						 M372.019,89.764h-20.184h-0.004h-0.004h-20.184v9.779h20.184h0.008h20.184V89.764L372.019,89.764z M331.286,89.764h-20.183
						h-0.005h-0.005H290.91v9.779h20.184h0.01h20.183V89.764L331.286,89.764z M290.555,89.764h-20.183h-0.006h-0.004h-20.184v9.779
						h20.184h0.01h20.183V89.764L290.555,89.764z M249.822,89.764h-20.183h-0.005h-0.004h-20.183v9.779h20.183h0.01h20.183V89.764
						L249.822,89.764z M209.09,89.764h-20.184h-0.004h-0.004h-20.184v9.779h20.184h0.009h20.184V89.764L209.09,89.764z
						 M168.357,89.764h-20.183h-0.005h-0.004h-20.183v9.779h20.183h0.009h20.183V89.764L168.357,89.764z M127.625,89.764h-20.183
						h-0.005h-0.004H87.248v9.779h20.184h0.009h20.183V89.764L127.625,89.764z M86.892,89.764H66.708h-0.004h-0.005H46.516v9.779
						h20.183h0.009h20.184V89.764L86.892,89.764z M473.851,79.687h-20.184h-0.004h-0.004h-20.185v9.779h20.185h0.008h20.184V79.687
						L473.851,79.687z M433.118,79.687h-20.184h-0.004h-0.004h-20.185v9.779h20.185h0.008h20.184V79.687L433.118,79.687z
						 M392.386,79.687h-20.184h-0.004h-0.006h-20.182v9.779h20.182h0.01h20.184V79.687L392.386,79.687z M351.653,79.687H331.47
						h-0.004h-0.004h-20.186v9.779h20.186h0.008h20.184V79.687L351.653,79.687z M310.921,79.687h-20.184h-0.004h-0.006h-20.184
						v9.779h20.184h0.01h20.184V79.687L310.921,79.687z M270.189,79.687h-20.184H250h-0.005h-20.183v9.779h20.183h0.009h20.184
						V79.687L270.189,79.687z M229.456,79.687h-20.183h-0.004h-0.005H189.08v9.779h20.184h0.009h20.183V79.687L229.456,79.687z
						 M188.723,79.687H168.54h-0.005h-0.004h-20.184v9.779h20.184h0.009h20.183V79.687L188.723,79.687z M147.991,79.687h-20.184
						h-0.004h-0.004h-20.184v9.779h20.184h0.009h20.184V79.687L147.991,79.687z M107.258,79.687H87.075H87.07h-0.004H66.882v9.779
						h20.184h0.009h20.183V79.687L107.258,79.687z M66.526,79.687H46.343h-0.005h-0.004H26.149v9.779h20.184h0.009h20.183V79.687
						L66.526,79.687z M453.485,69.611h-20.184h-0.004h-0.006h-20.184v9.779h20.184h0.01h20.184V69.611L453.485,69.611z
						 M412.753,69.611h-20.184h-0.006h-0.004h-20.184v9.779h20.184h0.01h20.184V69.611L412.753,69.611z M372.019,69.611h-20.184
						h-0.004h-0.004h-20.184v9.779h20.184h0.008h20.184V69.611L372.019,69.611z M331.286,69.611h-20.183h-0.005h-0.005H290.91v9.779
						h20.184h0.01h20.183V69.611L331.286,69.611z M290.555,69.611h-20.183h-0.006h-0.004h-20.184v9.779h20.184h0.01h20.183V69.611
						L290.555,69.611z M249.822,69.611h-20.183h-0.005h-0.004h-20.183v9.779h20.183h0.01h20.183V69.611L249.822,69.611z
						 M209.09,69.611h-20.184h-0.004h-0.004h-20.184v9.779h20.184h0.009h20.184V69.611L209.09,69.611z M168.357,69.611h-20.183
						h-0.005h-0.004h-20.183v9.779h20.183h0.009h20.183V69.611L168.357,69.611z M127.625,69.611h-20.183h-0.005h-0.004H87.248v9.779
						h20.184h0.009h20.183V69.611L127.625,69.611z M86.892,69.611H66.708h-0.004h-0.005H46.516v9.779h20.183h0.009h20.184V69.611
						L86.892,69.611z M473.851,59.534h-20.184h-0.004h-0.004h-20.185v9.779h20.185h0.008h20.184V59.534L473.851,59.534z
						 M433.118,59.534h-20.184h-0.004h-0.004h-20.185v9.779h20.185h0.008h20.184V59.534L433.118,59.534z M392.386,59.534h-20.184
						h-0.004h-0.006h-20.182v9.779h20.182h0.01h20.184V59.534L392.386,59.534z M351.653,59.534H331.47h-0.004h-0.004h-20.186v9.779
						h20.186h0.008h20.184V59.534L351.653,59.534z M310.921,59.534h-20.184h-0.004h-0.006h-20.184v9.779h20.184h0.01h20.184V59.534
						L310.921,59.534z M270.189,59.534h-20.184H250h-0.005h-20.183v9.779h20.183h0.009h20.184V59.534L270.189,59.534z
						 M229.456,59.534h-20.183h-0.004h-0.005H189.08v9.779h20.184h0.009h20.183V59.534L229.456,59.534z M188.723,59.534H168.54
						h-0.005h-0.004h-20.184v9.779h20.184h0.009h20.183V59.534L188.723,59.534z M147.991,59.534h-20.184h-0.004h-0.004h-20.184
						v9.779h20.184h0.009h20.184V59.534L147.991,59.534z M107.258,59.534H87.075H87.07h-0.004H66.882v9.779h20.184h0.009h20.183
						V59.534L107.258,59.534z M66.526,59.534H46.343h-0.005h-0.004H26.149v9.779h20.184h0.009h20.183V59.534L66.526,59.534z
						 M453.485,49.458h-20.184h-0.004h-0.006h-20.184v9.778h20.184h0.01h20.184V49.458L453.485,49.458z M412.753,49.458h-20.184
						h-0.006h-0.004h-20.184v9.778h20.184h0.01h20.184V49.458L412.753,49.458z M372.019,49.458h-20.184h-0.004h-0.004h-20.184v9.778
						h20.184h0.008h20.184V49.458L372.019,49.458z M331.286,49.458h-20.183h-0.005h-0.005H290.91v9.778h20.184h0.01h20.183V49.458
						L331.286,49.458z M290.555,49.458h-20.183h-0.006h-0.004h-20.184v9.778h20.184h0.01h20.183V49.458L290.555,49.458z
						 M249.822,49.458h-20.183h-0.005h-0.004h-20.183v9.778h20.183h0.01h20.183V49.458L249.822,49.458z M209.09,49.458h-20.184
						h-0.004h-0.004h-20.184v9.778h20.184h0.009h20.184V49.458L209.09,49.458z M168.357,49.458h-20.183h-0.005h-0.004h-20.183v9.778
						h20.183h0.009h20.183V49.458L168.357,49.458z M127.625,49.458h-20.183h-0.005h-0.004H87.248v9.778h20.184h0.009h20.183V49.458
						L127.625,49.458z M86.892,49.458H66.708h-0.004h-0.005H46.516v9.778h20.183h0.009h20.184V49.458z"/>
					<g>
						<path style="fill-rule:evenodd;clip-rule:evenodd;fill:#FFFFFF;" d="M52.306,220.804c-8.961,8.432-23.062,8.002-31.494-0.959
							c-8.432-8.962-8.002-23.062,0.96-31.494c20.604-19.306,39.445-11.683,72.867,1.84c17.097,6.917,39.463,15.967,68.67,23.256
							c33.742,8.421,65.367,7.325,96.29-0.082c31.987-7.662,63.773-22.146,96.535-39.972c78.422-42.672,150.383-9.333,150.592-9.238
							c11.227,5.059,16.227,18.261,11.166,29.488c-5.059,11.226-18.26,16.226-29.486,11.167
							c-0.152-0.069-52.316-24.256-110.986,7.668c-35.783,19.472-70.969,35.403-107.525,44.16
							c-37.624,9.012-76.122,10.34-117.228,0.082c-32.765-8.178-56.576-17.812-74.776-25.176
							C61.345,224.849,52.595,220.534,52.306,220.804z"/>
						<path style="fill-rule:evenodd;clip-rule:evenodd;fill:#FFFFFF;" d="M85.333,318.882c-1.725,0-3.379,0.311-4.906,0.879
							c-0.69-0.762-1.687-1.239-2.796-1.239c-0.516,0-1.008,0.103-1.457,0.291c-0.247-3.25-2.962-5.81-6.277-5.81
							c-1.438,0-2.765,0.483-3.825,1.295c-0.679-0.934-1.779-1.541-3.022-1.541c-0.207,0-0.411,0.018-0.609,0.05
							c0.42-0.98,0.653-2.061,0.653-3.194c0-4.487-3.638-8.125-8.125-8.125c-0.835,0-1.641,0.126-2.401,0.36
							c-0.588-1.256-1.864-2.125-3.343-2.125l-0.107,0.001c0.017-0.292,0.027-0.587,0.027-0.885c0-8.064-6.537-14.601-14.602-14.601
							c-8.064,0-14.601,6.537-14.601,14.601c0,0.113,0.001,0.226,0.004,0.338c-0.705-0.178-1.443-0.273-2.203-0.273
							c-1.511,0-2.934,0.375-4.183,1.035c-2.128-2.903-5.563-4.789-9.44-4.789c-6.46,0-11.697,5.236-11.697,11.696
							c0,1.27,0.204,2.493,0.578,3.637c-0.117-0.007-0.235-0.011-0.353-0.011c-3.182,0-5.76,2.579-5.76,5.761
							c0,0.373,0.036,0.739,0.104,1.092c-0.04,0-0.08-0.002-0.12-0.002c-1.798,0-3.262,1.427-3.32,3.211
							c-0.499-0.095-1.014-0.146-1.54-0.146c-2.078,0-4.021,0.724-5.419,2.046c-3.741,3.538,0.344,4.458,4.28,4.458h5.133h4.03
							h82.586h6.446h10.591c4.103,0,9.964,0.672,5.892-3.619C92.985,320.568,89.355,318.882,85.333,318.882z"/>
						<path style="fill-rule:evenodd;clip-rule:evenodd;fill:#FFFFFF;" d="M20.511,266.362c-2.361,1.964-5.866,1.641-7.83-0.721
							c-1.963-2.36-1.641-5.865,0.72-7.829c10.772-8.944,32.613-18.302,64.136-19.034c22.5-0.522,50.095,3.297,82.304,14.775
							c36.538,13.021,70.752,15.494,104.184,11.056c33.651-4.467,66.671-15.95,100.526-30.757
							c71.098-31.094,135.529,5.648,135.719,5.753c2.685,1.494,3.652,4.882,2.158,7.568c-1.494,2.686-4.883,3.652-7.568,2.159
							c-0.174-0.097-59.865-34.136-125.859-5.273c-34.689,15.173-68.643,26.954-103.535,31.586
							c-35.114,4.661-71.022,2.072-109.333-11.579c-30.855-10.995-57.097-14.659-78.378-14.164
							C49.134,250.567,29.802,258.649,20.511,266.362z"/>
					</g>
					<path style="fill-rule:evenodd;clip-rule:evenodd;fill:#FFFFFF;" d="M268.584,134.878c2.284,0,4.472,0.412,6.493,1.163
						c0.914-1.006,2.232-1.639,3.7-1.639c0.683,0,1.335,0.138,1.927,0.386c0.328-4.303,3.922-7.691,8.309-7.691
						c1.904,0,3.658,0.639,5.062,1.714c0.897-1.235,2.355-2.039,3.999-2.039c0.274,0,0.545,0.023,0.807,0.066
						c-0.556-1.298-0.863-2.728-0.863-4.229c0-5.938,4.813-10.752,10.752-10.752c1.106,0,2.173,0.166,3.178,0.477
						c0.779-1.662,2.467-2.813,4.424-2.813l0.142,0.002c-0.022-0.387-0.036-0.777-0.036-1.17c0-10.673,8.652-19.324,19.324-19.324
						c10.672,0,19.322,8.651,19.322,19.324c0,0.149-0.002,0.298-0.006,0.446c0.934-0.236,1.91-0.362,2.918-0.362
						c2,0,3.881,0.496,5.533,1.37c2.818-3.842,7.363-6.338,12.492-6.338c8.551,0,15.48,6.93,15.48,15.479
						c0,1.681-0.27,3.299-0.766,4.814c0.156-0.009,0.311-0.015,0.469-0.015c4.211,0,7.623,3.412,7.623,7.622
						c0,0.495-0.049,0.978-0.139,1.446c0.053-0.001,0.107-0.003,0.16-0.003c2.379,0,4.316,1.889,4.395,4.249
						c0.66-0.126,1.34-0.192,2.037-0.192c2.75,0,5.32,0.957,7.172,2.707c4.951,4.684-0.455,5.901-5.664,5.901h-6.793h-5.332H285.405
						h-8.531h-14.016c-5.429,0-13.186,0.889-7.797-4.789C258.457,137.11,263.261,134.878,268.584,134.878z"/>
				</g>
			</g>
			<path style="fill-rule:evenodd;clip-rule:evenodd;fill:#E8BAC8;" d="M80.636,403.643c-37.997-15.289-54.572-44.445-55.319-75.992
				H474.64c-0.863,21.43-10.631,44.063-34.453,66.895l-90.021,13.909H139.597L80.636,403.643z"/>
		</g>
		<path style="fill-rule:evenodd;clip-rule:evenodd;fill:#1D3F4D;" d="M463.608,395.651H36.391c-4.389,0-7.982,3.592-7.982,7.981
			l0,0c0,4.391,3.592,7.983,7.982,7.983h38.09c4.504,0,8.188,3.684,8.188,8.188l0,0c0,4.503-3.684,8.188-8.188,8.188h-15.7
			c-2.797,0-5.085,2.289-5.085,5.087l0,0c0,2.797,2.288,5.086,5.085,5.086c108.681,0,236.243,0,344.923,0
			c4.572,0,8.313-3.74,8.313-8.311l0,0c0-4.572-3.74-8.313-8.313-8.313h-37.998c-2.728,0-4.961-2.233-4.961-4.962v-0.001
			c0-2.728,2.232-4.962,4.961-4.962h97.902c4.391,0,7.982-3.592,7.982-7.983l0,0C471.591,399.243,467.997,395.651,463.608,395.651
			L463.608,395.651z M427.091,438.164c-4.539,0-8.252-3.714-8.252-8.25v-0.123c0-4.538,3.713-8.251,8.252-8.251l0,0
			c4.537,0,8.25,3.712,8.25,8.251v0.123C435.341,434.451,431.628,438.164,427.091,438.164L427.091,438.164z"/>
		<g>
			<g>
				<g>
					<path style="fill-rule:evenodd;clip-rule:evenodd;fill:#638C9A;" d="M390.649,266.196
						c12.131-12.351,21.154,3.338,19.895,19.086c-1.193,14.932-14.064,66.163-11.68,87.716h-4.928
						C381.882,345.359,375.122,282.007,390.649,266.196z"/>
					<path style="fill-rule:evenodd;clip-rule:evenodd;fill:#92B8C9;" d="M395.749,372.998
						c-11.734-43.563,3.121-103.776,3.17-103.981c0.092-0.373,0.469-0.604,0.842-0.513c0.373,0.091,0.603,0.468,0.514,0.842
						c-0.051,0.205-14.924,60.488-3.1,103.652H395.749z"/>
				</g>
				<g>
					<path style="fill-rule:evenodd;clip-rule:evenodd;fill:#1D3F4D;" d="M420.575,293.415c12.783-6.773,16.006,8.005,11.023,20.229
						c-4.131,10.132-22.375,40.099-29.273,59.353h-6.498C395.276,346.389,405.487,301.409,420.575,293.415z"/>
					<path style="fill-rule:evenodd;clip-rule:evenodd;fill:#7BA7B5;" d="M398.2,372.998c4.23-35.988,28.162-75.105,28.25-75.247
						c0.166-0.274,0.523-0.362,0.799-0.195c0.275,0.166,0.361,0.525,0.195,0.8c-0.084,0.141-23.865,39.006-28.088,74.643H398.2z"/>
				</g>
				<g>
					<path style="fill-rule:evenodd;clip-rule:evenodd;fill:#7BA7B5;" d="M366.55,310.495c-12.389-5.411-14.352,8.586-8.848,19.628
						c3.725,7.471,17.145,26.602,26.182,42.875H394.2C390.673,348.378,379.356,316.089,366.55,310.495z"/>
					<path style="fill-rule:evenodd;clip-rule:evenodd;fill:#1D3F4D;" d="M390.517,372.998
						c-8.797-29.826-29.055-57.935-29.135-58.049c-0.174-0.244-0.514-0.301-0.76-0.126c-0.244,0.176-0.301,0.516-0.125,0.76
						c0.08,0.112,20.123,27.928,28.898,57.415H390.517z"/>
				</g>
			</g>
			<g>
				<path style="fill-rule:evenodd;clip-rule:evenodd;fill:#B62351;" d="M410.073,363.151h-36.299c-1.086,0-1.975,0.887-1.975,1.974
					v8.961c0,1.087,0.889,1.975,1.975,1.975h36.299c1.086,0,1.973-0.888,1.973-1.975v-8.961
					C412.046,364.038,411.159,363.151,410.073,363.151z"/>
				<polygon style="fill-rule:evenodd;clip-rule:evenodd;fill:#B62351;" points="403.847,370.441 380.001,370.441 373.774,376.059 
					378.86,395.651 391.925,395.651 404.987,395.651 410.073,376.059 				"/>
				<polygon style="fill-rule:evenodd;clip-rule:evenodd;fill:#97234E;" points="373.774,376.059 374.819,380.086 407.308,386.707 
					410.073,376.059 				"/>
			</g>
		</g>
		<g>
			<g>
				<path style="fill-rule:evenodd;clip-rule:evenodd;fill:#D6725F;" d="M104.872,252.115l-8.307-9.007c0,0-1.111-0.989-1.819,0.037
					c-0.708,1.025,0.564,3.039,1.131,4.082c0.567,1.043,4.34,8.391,4.34,8.391l5.254-0.698L104.872,252.115z"/>
				<path style="fill-rule:evenodd;clip-rule:evenodd;fill:#D6725F;" d="M102.568,251.884l-11.477-7.338
					c0,0-1.474-0.749-1.945,0.554c-0.471,1.303,1.465,3.108,2.369,4.07c0.905,0.96,7.037,7.795,7.037,7.795l5.452-2.234
					L102.568,251.884z"/>
				<path style="fill-rule:evenodd;clip-rule:evenodd;fill:#D6725F;" d="M394.174,252.115l8.308-9.007c0,0,1.109-0.989,1.817,0.037
					c0.708,1.025-0.564,3.039-1.13,4.082c-0.567,1.043-4.341,8.391-4.341,8.391l-5.255-0.698L394.174,252.115z"/>
				<path style="fill-rule:evenodd;clip-rule:evenodd;fill:#D6725F;" d="M396.479,251.884l11.474-7.338c0,0,1.476-0.749,1.945,0.554
					c0.473,1.303-1.464,3.108-2.367,4.07c-0.904,0.96-7.037,7.795-7.037,7.795l-5.451-2.234L396.479,251.884z"/>
				<g>
					<path style="fill-rule:evenodd;clip-rule:evenodd;fill:#30295E;" d="M233.83,106.332c30.052-36.522,69.761,4.726,48.634,52.383
						c-1.969,3.721,48.832,53.719-3.754,81.799c-27.007,14.423-67.019-14.16-67.019-14.16c-26.34-39.366,7.688-62.065,7.355-67.5
						c-0.403-6.582-2.504-12.716-6.637-22.438C205.577,120.348,217.946,101.879,233.83,106.332z"/>
					<path style="fill-rule:evenodd;clip-rule:evenodd;fill:#E6AD83;" d="M211.243,256.942c0,0-36.256,49.645-43.051,48.126
						c-6.795-1.518-78.583-52.523-80.234-53.759c-1.651-1.239-1.014-3.407,0.734-3.275c1.749,0.132,10.963,5.221,11.559,5.621
						c0.596,0.401,0.638-0.216,0.638-0.216c-1.772-8.193,5.662-10.168,7.621-10.294c1.959-0.125,3.443,0.735,3.432,1.766
						c-0.012,1.028-1.504,1.449-1.504,1.449c-4.594,0.483-5.687,4.416-3.895,7.022c1.791,2.605,5.676,3.947,8.611,1.385
						c2.935-2.561,0.738-5.96-0.157-6.958c-0.894-0.998-1.804-2.051-0.837-3.02c0.966-0.968,1.992-0.086,1.992-0.086
						c9.318,6.457,4.686,13.868,4.686,13.868s-0.953,2.602,1.28,4.081c2.232,1.478,39.806,19.824,42.376,20.052
						c1.92,0.169,20.342-36.326,31.093-58.243c5.229-10.659,12.658-23.059,22.954-26.323
						C218.541,198.137,227.233,216.527,211.243,256.942z"/>
					<path style="fill-rule:evenodd;clip-rule:evenodd;fill:#E6AD83;" d="M288.758,256.942c0,0,36.255,49.645,43.051,48.126
						c6.794-1.518,78.581-52.523,80.233-53.759c1.651-1.239,1.014-3.407-0.735-3.275c-1.748,0.132-10.962,5.221-11.557,5.621
						c-0.596,0.401-0.641-0.216-0.641-0.216c1.772-8.193-5.661-10.168-7.62-10.294c-1.958-0.125-3.444,0.735-3.432,1.766
						c0.01,1.028,1.504,1.449,1.504,1.449c4.595,0.483,5.686,4.416,3.897,7.022c-1.793,2.605-5.68,3.947-8.611,1.385
						c-2.935-2.561-0.741-5.96,0.155-6.958c0.894-0.998,1.805-2.051,0.836-3.02c-0.964-0.968-1.991-0.086-1.991-0.086
						c-9.319,6.457-4.684,13.868-4.684,13.868s0.951,2.602-1.28,4.081c-2.232,1.478-39.807,19.824-42.375,20.052
						c-1.921,0.169-20.345-36.326-31.093-58.243c-5.229-10.659-12.577-23.217-22.874-26.482
						C281.54,197.979,272.768,216.527,288.758,256.942z"/>
					<path style="fill-rule:evenodd;clip-rule:evenodd;fill:#B62351;" d="M303.709,337.542l60.125,3.369
						c0,0-4.825,17.808-5.511,19.773c-0.686,1.966-108.238,33.064-108.238,33.064s-107.554-31.099-108.24-33.064
						c-0.686-1.966-5.511-19.773-5.511-19.773l60.124-3.369H303.709z"/>
					<path style="fill-rule:evenodd;clip-rule:evenodd;fill:#B62351;" d="M302.509,394.999c0,0,3.15-3.466,5.257-3.701
						c2.11-0.235,33.99,9.491,38.326,10.898c8.064,2.614,10.732,25.621-8.323,23.206c-8.32-1.056-29.533-3.986-33.166-4.923
						c-3.636-0.938-4.768-6.729-4.768-6.729L302.509,394.999z"/>
					<path style="fill-rule:evenodd;clip-rule:evenodd;fill:#CF5392;" d="M262.521,194.353l18.858,3.44l3.681,27.814
						c0,0,4.455,13.595,4.924,18.4c0.469,4.806-5.278,16.876-7.153,21.797c-1.875,4.923-1.873,32.113-1.64,33.988
						s12.947,37.748,12.947,37.748s-9.227,9.483-44.053,9.483s-44.053-9.483-44.053-9.483s12.712-35.873,12.946-37.748
						c0.233-1.875,0.235-29.065-1.641-33.988c-1.875-4.922-7.621-16.992-7.152-21.797c0.469-4.805,4.923-18.4,4.923-18.4
						l3.681-27.814l18.858-3.44l12.436,12.148L262.521,194.353z"/>
					<path style="fill-rule:evenodd;clip-rule:evenodd;fill:#E6AD83;" d="M148.043,342.731c0,0,154.61,52.126,158.485,53.68
						c3.363,1.353,6.524,19.102-6.693,17.34c-5.544-0.739-143.24-25.875-156.489-29.012
						C112.503,377.436,114.054,330.914,148.043,342.731z"/>
					<path style="fill-rule:evenodd;clip-rule:evenodd;fill:#D6725F;" d="M264.465,382.056c23.11,7.829,40.785,13.843,42.064,14.354
						c2.065,0.83,4.052,7.836,2.222,12.717c-1.218,1.327-2.704,2.799-4.338,4.33c-1.243,0.405-2.755,0.535-4.577,0.292
						c-2.496-0.331-31.758-5.606-64.395-11.592L264.465,382.056z"/>
					<path style="fill-rule:evenodd;clip-rule:evenodd;fill:#FFFFFF;" d="M294.14,392.132c-0.28,4.618-1.324,12.664-5.055,19.759
						c6.027,1.072,9.909,1.748,10.75,1.858c13.218,1.763,10.057-15.986,6.693-17.339
						C305.903,396.161,301.344,394.589,294.14,392.132z"/>
					<path style="fill-rule:evenodd;clip-rule:evenodd;fill:#DEDAE3;" d="M294.14,392.132c-0.28,4.618-1.324,12.664-5.055,19.759
						l4.945,0.875c4.482-7.028,5.011-14.871,4.918-18.99L294.14,392.132z"/>
					<path style="fill-rule:evenodd;clip-rule:evenodd;fill:#FFFFFF;" d="M311.71,398.668c-0.058-0.216,0.068-0.439,0.281-0.497
						c0.216-0.059,0.438,0.066,0.497,0.281l2.614,9.41l4.026-5.034l-0.673-2.42c-0.058-0.215,0.068-0.438,0.281-0.496
						c0.216-0.059,0.439,0.066,0.497,0.281l0.518,1.859l0.61-0.763c0.138-0.174,0.392-0.201,0.567-0.064
						c0.172,0.139,0.199,0.394,0.061,0.566l-0.972,1.217l1.725,6.212l4.027-5.031l-0.566-2.042c-0.06-0.215,0.066-0.438,0.279-0.497
						c0.217-0.058,0.439,0.067,0.498,0.282l0.411,1.479l0.857-1.07c0.138-0.173,0.393-0.201,0.567-0.061
						c0.173,0.138,0.201,0.392,0.063,0.564l-1.222,1.525l1.726,6.21l4.028-5.031l-0.462-1.66c-0.059-0.215,0.067-0.438,0.282-0.497
						c0.215-0.058,0.438,0.067,0.496,0.282l0.306,1.099l1.103-1.379c0.137-0.172,0.394-0.199,0.566-0.062
						c0.173,0.139,0.201,0.394,0.063,0.566l-1.467,1.831l1.726,6.212l4.509-5.63c0.139-0.175,0.392-0.202,0.565-0.063
						c0.176,0.139,0.203,0.393,0.063,0.566l-4.87,6.086l1.539,5.541c0.058,0.215-0.068,0.436-0.281,0.496
						c-0.217,0.059-0.439-0.068-0.497-0.281l-1.384-4.98l-2.594,3.24c-0.137,0.174-0.392,0.201-0.566,0.063
						c-0.173-0.138-0.2-0.393-0.062-0.565l2.955-3.693l-1.725-6.213l-4.028,5.031l1.435,5.162c0.059,0.215-0.067,0.438-0.282,0.496
						c-0.215,0.059-0.438-0.066-0.496-0.281l-1.277-4.601l-2.84,3.549c-0.138,0.172-0.395,0.199-0.567,0.061
						c-0.173-0.137-0.201-0.393-0.063-0.565l3.203-4.002l-1.725-6.21l-4.027,5.031l1.328,4.781c0.058,0.215-0.067,0.438-0.282,0.496
						c-0.215,0.06-0.438-0.066-0.496-0.281l-1.172-4.219l-3.086,3.853c-0.14,0.174-0.395,0.201-0.566,0.064
						c-0.174-0.139-0.202-0.394-0.064-0.566l3.449-4.31l-1.725-6.212l-4.029,5.033l1.223,4.4c0.06,0.215-0.065,0.438-0.281,0.498
						c-0.214,0.058-0.438-0.068-0.496-0.283l-1.065-3.839l-3.332,4.163c-0.138,0.173-0.395,0.201-0.567,0.063
						c-0.173-0.138-0.199-0.393-0.063-0.566l3.695-4.616L311.71,398.668z"/>
					<path style="fill-rule:evenodd;clip-rule:evenodd;fill:#FFFFFF;" d="M342.24,402.401c7.235,2.348,9.631,22.994-7.47,20.828
						c-7.467-0.947-26.505-3.577-29.765-4.418c-2.311-0.597-3.496-3.382-3.991-4.952c-0.376-0.018-0.77-0.056-1.18-0.109
						c0,0,1.132,5.792,4.768,6.729c3.633,0.937,24.846,3.867,33.166,4.923c19.056,2.415,16.387-20.592,8.323-23.206
						c-4.336-1.407-36.216-11.134-38.326-10.898c-2.107,0.235-5.257,3.701-5.257,3.701c0.412,0.142,0.796,0.273,1.148,0.396
						c0.909-0.902,2.798-2.617,4.188-2.771C309.738,392.412,338.349,401.141,342.24,402.401z"/>
					<g>
						<path style="fill-rule:evenodd;clip-rule:evenodd;fill:#B62351;" d="M197.658,394.999c0,0-3.15-3.466-5.258-3.701
							c-2.109-0.235-33.989,9.491-38.325,10.898c-8.063,2.614-10.732,25.621,8.322,23.206c8.32-1.056,29.534-3.986,33.167-4.923
							c3.633-0.938,4.768-6.729,4.768-6.729L197.658,394.999z"/>
						<path style="fill-rule:evenodd;clip-rule:evenodd;fill:#E6AD83;" d="M352.125,342.731c0,0-154.611,52.126-158.486,53.68
							c-3.363,1.353-6.524,19.102,6.694,17.34c5.543-0.739,143.238-25.875,156.49-29.012
							C387.663,377.436,386.114,330.914,352.125,342.731z"/>
						<path style="fill-rule:evenodd;clip-rule:evenodd;fill:#FFFFFF;" d="M206.028,392.132c0.281,4.618,1.326,12.664,5.054,19.759
							c-6.027,1.072-9.908,1.748-10.749,1.858c-13.218,1.763-10.057-15.986-6.694-17.339
							C194.265,396.161,198.823,394.589,206.028,392.132z"/>
						<path style="fill-rule:evenodd;clip-rule:evenodd;fill:#DEDAE3;" d="M206.028,392.132c0.281,4.618,1.326,12.664,5.054,19.759
							l-4.946,0.875c-4.481-7.028-5.01-14.871-4.917-18.99L206.028,392.132z"/>
						<path style="fill-rule:evenodd;clip-rule:evenodd;fill:#FFFFFF;" d="M188.457,398.668c0.059-0.216-0.067-0.439-0.281-0.497
							c-0.215-0.059-0.438,0.066-0.497,0.281l-2.613,9.41l-4.028-5.034l0.673-2.42c0.059-0.215-0.067-0.438-0.281-0.496
							c-0.215-0.059-0.438,0.066-0.497,0.281l-0.517,1.859l-0.61-0.763c-0.138-0.174-0.393-0.201-0.566-0.064
							c-0.174,0.139-0.202,0.394-0.063,0.566l0.974,1.217l-1.726,6.212l-4.028-5.031l0.567-2.042
							c0.059-0.215-0.067-0.438-0.282-0.497c-0.214-0.058-0.438,0.067-0.497,0.282l-0.411,1.479l-0.857-1.07
							c-0.138-0.173-0.393-0.201-0.566-0.061c-0.173,0.138-0.201,0.392-0.063,0.564l1.221,1.525l-1.725,6.21l-4.028-5.031
							l0.461-1.66c0.059-0.215-0.066-0.438-0.281-0.497c-0.215-0.058-0.438,0.067-0.497,0.282l-0.305,1.099l-1.105-1.379
							c-0.137-0.172-0.393-0.199-0.566-0.062c-0.173,0.139-0.2,0.394-0.063,0.566l1.467,1.831l-1.725,6.212l-4.509-5.63
							c-0.138-0.175-0.393-0.202-0.566-0.063c-0.174,0.139-0.202,0.393-0.064,0.566l4.873,6.086l-1.54,5.541
							c-0.059,0.215,0.067,0.436,0.282,0.496c0.215,0.059,0.438-0.068,0.497-0.281l1.383-4.98l2.593,3.24
							c0.138,0.174,0.393,0.201,0.567,0.063c0.173-0.138,0.201-0.393,0.062-0.565l-2.956-3.693l1.725-6.213l4.028,5.031
							l-1.434,5.162c-0.058,0.215,0.067,0.438,0.282,0.496c0.215,0.059,0.438-0.066,0.497-0.281l1.278-4.601l2.84,3.549
							c0.138,0.172,0.393,0.199,0.566,0.061c0.173-0.137,0.202-0.393,0.063-0.565l-3.203-4.002l1.724-6.21l4.028,5.031l-1.328,4.781
							c-0.058,0.215,0.067,0.438,0.282,0.496c0.214,0.06,0.437-0.066,0.496-0.281l1.172-4.219l3.086,3.853
							c0.138,0.174,0.393,0.201,0.566,0.064c0.173-0.139,0.202-0.394,0.063-0.566l-3.45-4.31l1.726-6.212l4.028,5.033l-1.223,4.4
							c-0.059,0.215,0.067,0.438,0.282,0.498c0.214,0.058,0.438-0.068,0.497-0.283l1.066-3.839l3.332,4.163
							c0.138,0.173,0.393,0.201,0.566,0.063c0.174-0.138,0.201-0.393,0.062-0.566l-3.696-4.616L188.457,398.668z"/>
						<path style="fill-rule:evenodd;clip-rule:evenodd;fill:#FFFFFF;" d="M157.928,402.401c-7.235,2.348-9.63,22.994,7.469,20.828
							c7.467-0.947,26.504-3.577,29.765-4.418c2.311-0.597,3.496-3.382,3.99-4.952c0.378-0.018,0.771-0.056,1.181-0.109
							c0,0-1.134,5.792-4.768,6.729c-3.634,0.937-24.847,3.867-33.167,4.923c-19.054,2.415-16.385-20.592-8.322-23.206
							c4.336-1.407,36.216-11.134,38.325-10.898c2.109,0.235,5.258,3.701,5.258,3.701c-0.411,0.142-0.795,0.273-1.148,0.396
							c-0.909-0.902-2.798-2.617-4.188-2.771C190.429,392.412,161.82,401.141,157.928,402.401z"/>
					</g>
					
						<line style="fill-rule:evenodd;clip-rule:evenodd;fill:none;stroke:#D6725F;stroke-width:1.4173;stroke-linecap:round;stroke-linejoin:round;stroke-miterlimit:2.6131;" x1="250.084" y1="377.188" x2="206.028" y2="392.132"/>
					<path style="fill-rule:evenodd;clip-rule:evenodd;fill:#D6725F;" d="M249.967,172.562h0.234c6.776,0,12.32,5.376,12.32,11.947
						v14.037c0,6.572-5.544,11.948-12.32,11.948h-0.234c-6.774,0-12.318-5.376-12.318-11.948v-14.037
						C237.648,177.938,243.192,172.562,249.967,172.562z"/>
					<g>
						<path style="fill-rule:evenodd;clip-rule:evenodd;fill:#D6725F;" d="M278.534,147.786c0.209,0.03,0.412,0.065,0.612,0.109
							l0.007,0.002l0,0c3.726,0.807,6.539,4.102,6.587,8.077c0.055,4.621-3.646,8.414-8.267,8.469
							c-4.623,0.055-8.415-3.647-8.47-8.267c-0.033-2.686,1.205-5.091,3.153-6.645c-0.232,2.468,0.141,5.529,3.291,5.857
							l-0.058-4.826C275.367,148.609,277.195,147.723,278.534,147.786z"/>
						<path style="fill-rule:evenodd;clip-rule:evenodd;fill:#D6725F;" d="M221.304,147.388c-0.208,0.027-0.412,0.06-0.614,0.1
							l-0.007,0.002l0.001-0.001c-3.738,0.756-6.596,4.012-6.7,7.986c-0.119,4.62,3.53,8.463,8.149,8.583
							c4.621,0.119,8.463-3.529,8.584-8.148c0.069-2.686-1.133-5.107-3.06-6.689c0.194,2.472-0.219,5.527-3.374,5.811l0.125-4.825
							C224.459,148.255,222.644,147.343,221.304,147.388z"/>
					</g>
					<path style="fill-rule:evenodd;clip-rule:evenodd;fill:#E6AD83;" d="M249.863,189.693c-15.621,0-28.653-19.276-28.653-34.496
						v-20.216c0-15.759,12.895-28.652,28.649-28.652h0.004c15.756,0,28.651,12.894,28.651,28.652v19.789
						C278.515,171.449,267.146,189.693,249.863,189.693z"/>
					<path style="fill-rule:evenodd;clip-rule:evenodd;fill:#D6725F;" d="M266.057,161.544c-2.194,0.041-3.94,1.851-3.898,4.044
						c0.04,2.192,1.852,3.938,4.044,3.898c2.194-0.041,3.94-1.852,3.898-4.044C270.061,163.249,268.248,161.503,266.057,161.544z"/>
					<path style="fill-rule:evenodd;clip-rule:evenodd;fill:#D6725F;" d="M233.181,162.176c-2.192,0.04-3.938,1.852-3.896,4.044
						c0.04,2.193,1.851,3.938,4.044,3.898c2.192-0.041,3.938-1.852,3.896-4.045C237.185,163.88,235.373,162.136,233.181,162.176z"/>
					<path style="fill-rule:evenodd;clip-rule:evenodd;fill:#30295E;" d="M241.201,145.103c0.604,0.273,0.872,0.986,0.598,1.589
						c-0.273,0.603-0.985,0.871-1.589,0.598c-0.01-0.004-3.63-1.717-7.084,0.456c-0.563,0.354-1.309,0.184-1.662-0.379
						c-0.352-0.562-0.185-1.307,0.379-1.661C236.406,142.835,241.189,145.098,241.201,145.103z"/>
					<path style="fill-rule:evenodd;clip-rule:evenodd;fill:#30295E;" d="M269.535,145.637c0.578,0.323,0.788,1.055,0.466,1.633
						c-0.322,0.578-1.053,0.789-1.633,0.466c-0.009-0.005-3.477-2.006-7.098-0.122c-0.59,0.306-1.319,0.077-1.625-0.512
						c-0.308-0.589-0.077-1.319,0.512-1.626C264.939,142.987,269.521,145.632,269.535,145.637z"/>
					<path style="fill-rule:evenodd;clip-rule:evenodd;fill:#30295E;" d="M243.543,168.77c-0.037,4.075,3.235,7.407,7.31,7.443
						c4.074,0.038,7.405-3.235,7.443-7.309h-0.013c0.008-0.701-0.562-1.279-1.261-1.286l-12.182-0.111
						c-0.701-0.006-1.279,0.562-1.286,1.262H243.543z"/>
					<path style="fill-rule:evenodd;clip-rule:evenodd;fill:#B94440;" d="M246.239,174.538c1.255,1.034,2.86,1.66,4.613,1.675
						c1.433,0.014,2.771-0.382,3.908-1.078c-0.553-1.52-2.197-2.667-4.193-2.76C248.665,172.288,246.989,173.186,246.239,174.538z"
						/>
					<path style="fill-rule:evenodd;clip-rule:evenodd;fill:#FFFFFF;" d="M256.609,167.615l-11.448-0.105
						c-0.194,1.266,0.382,2.549,1.23,2.836c1.033,0.347,9.32,0.207,9.913-0.44C256.589,169.594,256.637,168.58,256.609,167.615z"/>
					<path style="fill-rule:evenodd;clip-rule:evenodd;fill:#F1D3C8;" d="M251.277,158.086c0.534,1.476,1.468,4.147,1.387,4.585
						c-0.11,0.609-3.283,1.021-4.116,0.17c-0.556-0.568,0.133-2.9,0.734-4.465C250.103,156.245,250.559,156.099,251.277,158.086z"/>
					<path style="fill-rule:evenodd;clip-rule:evenodd;fill:#30295E;" d="M266.744,156.387c-0.003-0.667-0.266-1.302-0.74-1.773
						c-0.477-0.471-1.112-0.732-1.78-0.73c-0.668,0.003-1.303,0.27-1.772,0.743c-0.471,0.475-0.733,1.11-0.729,1.779
						c0.001,0.556-0.446,1.008-1.004,1.01c-0.555,0.001-1.007-0.447-1.01-1.002c-0.005-1.203,0.466-2.351,1.314-3.204
						c0.846-0.854,1.991-1.333,3.193-1.338c1.203-0.005,2.351,0.465,3.204,1.313c0.439,0.436,0.778,0.95,1.007,1.51
						c0.13,0.029,0.385,0.05,0.612-0.124c0.127-0.096,0.307-0.072,0.404,0.055c0.096,0.126,0.07,0.308-0.056,0.403
						c-0.259,0.197-0.537,0.252-0.768,0.254l0.005,0.021c0.243,0.053,0.555,0.06,0.877-0.094c0.142-0.068,0.315-0.007,0.383,0.137
						c0.068,0.143,0.008,0.314-0.136,0.383c-0.361,0.172-0.715,0.201-1.019,0.167v0.006c0.253,0.102,0.556,0.163,0.902,0.12
						c0.157-0.018,0.3,0.094,0.32,0.251c0.018,0.158-0.093,0.302-0.251,0.321c-0.354,0.044-0.676,0.005-0.954-0.078
						c-0.065,0.49-0.485,0.868-0.992,0.871C267.198,157.392,266.747,156.943,266.744,156.387z"/>
					<path style="fill-rule:evenodd;clip-rule:evenodd;fill:#30295E;" d="M234.68,156.387c0.003-0.667,0.269-1.302,0.742-1.773
						c0.475-0.471,1.111-0.732,1.779-0.73c0.668,0.003,1.303,0.27,1.773,0.743c0.47,0.475,0.73,1.11,0.729,1.779
						c-0.001,0.556,0.447,1.008,1.002,1.01c0.555,0.001,1.009-0.447,1.01-1.002c0.006-1.203-0.465-2.351-1.312-3.204
						c-0.847-0.854-1.99-1.333-3.193-1.338c-1.202-0.005-2.351,0.465-3.205,1.313c-0.439,0.436-0.777,0.95-1.005,1.51
						c-0.132,0.029-0.386,0.05-0.612-0.124c-0.127-0.096-0.308-0.072-0.404,0.055c-0.097,0.126-0.072,0.308,0.055,0.403
						c0.258,0.197,0.537,0.252,0.77,0.254l-0.006,0.021c-0.244,0.053-0.555,0.06-0.878-0.094c-0.143-0.068-0.314-0.007-0.384,0.137
						c-0.068,0.143-0.007,0.314,0.137,0.383c0.361,0.172,0.716,0.201,1.02,0.167l-0.001,0.006c-0.254,0.102-0.557,0.163-0.901,0.12
						c-0.158-0.018-0.302,0.094-0.32,0.251c-0.02,0.158,0.094,0.302,0.25,0.321c0.355,0.044,0.674,0.005,0.953-0.078
						c0.066,0.49,0.485,0.868,0.993,0.871C234.225,157.392,234.678,156.943,234.68,156.387z"/>
					<path style="fill-rule:evenodd;clip-rule:evenodd;fill:#30295E;" d="M221.304,147.388l-0.094,4.672c0,0,5.707-2.107,4.77-8.905
						c0,0,15.587-2.815,20.275-17.347c0,0,10.08,3.517,17.346,0.704c0,0,3.398,12.422,10.9,14.649c0,0,0.293,9.26,4.015,9.962
						v-4.219l3.017-6.211l-2.461-21.213c0,0-11.254-16.407-13.127-17.345c-1.876-0.938-18.752-3.282-18.752-3.282l-19.925,11.251
						c0,0-7.031,9.376-7.031,11.486C220.235,123.698,213.477,137.136,221.304,147.388z"/>
				</g>
				
					<path style="fill-rule:evenodd;clip-rule:evenodd;fill:none;stroke:#D6725F;stroke-width:0.7087;stroke-linecap:round;stroke-linejoin:round;stroke-miterlimit:2.6131;" d="
					M163.935,282.563l5.383,1.695 M335.94,282.602l-4.638,1.276"/>
			</g>
			<path style="fill-rule:evenodd;clip-rule:evenodd;fill:#FFFFFF;" d="M231.45,233.359L231.45,233.359
				c4.221-4.347,11.23-4.449,15.576-0.227l3.464,3.364l3.364-3.463c4.223-4.346,11.23-4.449,15.576-0.227l0,0
				c11.235,10.913-5.05,24.076-18.532,31.714C238.414,259.008,220.523,244.608,231.45,233.359z"/>
		</g>
		<g>
			<path style="fill-rule:evenodd;clip-rule:evenodd;fill:#8FCADA;" d="M168.338,190.378l7.039,4.642l-2.31,3.503
				c2.836,1.872,3.014,6.652,1.143,9.489l-2.317,3.515l-3.2,4.852l-0.025,0.039l-0.416,0.631l-0.027-0.018
				c-0.441,0.556-0.945,1.03-1.553,1.341c-1.023,0.524-1.679,0.605-2.023,1.049c-0.244,0.316-0.347,0.803-0.247,1.807
				c0.11,1.1-0.462,2.362-1.112,3.348l-0.638,0.967l-13.925,21.117l-0.639,0.97c-1.872,2.837-5.724,3.628-8.563,1.756l-7.034-4.637
				c-2.838-1.872-3.629-5.725-1.757-8.564l0.638-0.967l13.924-21.116l0.639-0.97c0.586-0.889,1.369-1.578,2.252-2.045
				c1.259-0.668,1.589-0.834,1.787-1.225c0.165-0.327,0.282-0.794,0.366-1.979c0.054-0.766,0.251-1.529,0.602-2.249l-0.044-0.028
				l0.442-0.67l3.199-4.852l2.318-3.515c1.871-2.836,6.334-4.557,9.172-2.687L168.338,190.378z"/>
			<path style="fill-rule:evenodd;clip-rule:evenodd;fill:#B0DAED;" d="M168.338,190.378l2.64,1.741l-2.31,3.503
				c2.835,1.872,3.013,6.652,1.143,9.489l-2.317,3.516l-3.2,4.852l-0.025,0.039l-0.417,0.631l-0.028-0.019
				c-0.44,0.557-0.945,1.03-1.553,1.341c-1.024,0.524-1.679,0.605-2.023,1.05c-0.244,0.315-0.348,0.803-0.248,1.806
				c0.11,1.099-0.462,2.362-1.112,3.348l-0.638,0.968l-13.925,21.117l-0.639,0.968c-1.872,2.838-5.725,3.628-8.563,1.758
				l-2.635-1.738c-2.838-1.872-3.629-5.725-1.757-8.564l0.638-0.967l13.924-21.116l0.639-0.97c0.586-0.889,1.369-1.578,2.252-2.045
				c1.259-0.668,1.589-0.834,1.787-1.225c0.165-0.327,0.282-0.794,0.366-1.979c0.054-0.766,0.251-1.529,0.602-2.249l-0.044-0.028
				l0.442-0.67l3.199-4.852l2.318-3.515c1.871-2.836,6.334-4.557,9.172-2.687L168.338,190.378z"/>
			<path style="fill-rule:evenodd;clip-rule:evenodd;fill:#387286;" d="M174.418,188.815l-2.979-1.964
				c-0.881-0.581-2.114-0.282-2.737,0.663l-2.227,3.377l4.581,3.021l4.581,3.021l2.228-3.377c0.624-0.946,0.413-2.196-0.469-2.777
				L174.418,188.815z"/>
			
				<rect x="158.805" y="195.67" transform="matrix(0.5505 -0.8348 0.8348 0.5505 -98.741 228.741)" style="fill-rule:evenodd;clip-rule:evenodd;fill:#5293AA;" width="8.478" height="20.787"/>
		</g>
		<g>
			<g>
				
					<rect x="75.577" y="195.096" transform="matrix(0.933 -0.3598 0.3598 0.933 -64.961 46.6691)" style="fill-rule:evenodd;clip-rule:evenodd;fill:#255262;" width="34.587" height="5.443"/>
				
					<rect x="75.021" y="195.199" transform="matrix(0.933 -0.3598 0.3598 0.933 -64.4792 46.3723)" style="fill-rule:evenodd;clip-rule:evenodd;fill:#387286;" width="34.587" height="2.35"/>
				<path style="fill-rule:evenodd;clip-rule:evenodd;fill:#387286;" d="M74.103,215.632c-1.834,0.573-3.838-0.376-4.539-2.192
					l-4.454-11.549c-0.701-1.816,0.148-3.866,1.892-4.673l-0.146-0.376c-0.718-1.862,0.192-3.971,2.026-4.732
					c-0.401-1.753,0.542-3.597,2.267-4.262h0.001c1.892-0.729,4.037,0.221,4.766,2.113l9.667,25.064
					c0.73,1.892-0.221,4.037-2.113,4.766h0c-1.726,0.666-3.661-0.067-4.542-1.636c-1.871,0.667-3.96-0.285-4.679-2.146
					L74.103,215.632L74.103,215.632z M101.618,176.097L101.618,176.097c-1.893,0.73-2.843,2.875-2.113,4.767l9.666,25.064
					c0.73,1.892,2.875,2.843,4.767,2.114l0-0.001c1.726-0.666,2.668-2.508,2.267-4.262c1.834-0.761,2.745-2.869,2.026-4.732
					l-0.145-0.377c1.743-0.806,2.591-2.855,1.891-4.672l-4.454-11.548c-0.701-1.817-2.706-2.765-4.539-2.193l-0.145-0.376
					c-0.718-1.862-2.808-2.813-4.679-2.145C105.28,176.164,103.343,175.431,101.618,176.097z"/>
				<path style="fill-rule:evenodd;clip-rule:evenodd;fill:#255262;" d="M107.027,200.37l2.143,5.557
					c0.163,0.42,0.395,0.794,0.678,1.113c0.993,1.119,2.617,1.568,4.089,0.999c1.726-0.666,2.668-2.508,2.267-4.262
					c1.834-0.761,2.745-2.869,2.026-4.732l-0.145-0.377c1.495-0.691,2.332-2.298,2.097-3.887c-0.039-0.263-0.107-0.526-0.207-0.785
					l-2.143-5.558c0.701,1.817-0.148,3.866-1.891,4.673l0.145,0.376c0.719,1.863-0.192,3.971-2.025,4.732
					c0.4,1.753-0.541,3.596-2.268,4.263C109.901,203.213,107.757,202.262,107.027,200.37z"/>
				<path style="fill-rule:evenodd;clip-rule:evenodd;fill:#255262;" d="M85.582,215.024l-2.143-5.557
					c0.729,1.892-0.221,4.037-2.114,4.766c-1.726,0.666-3.662-0.067-4.541-1.636c-1.871,0.667-3.961-0.285-4.679-2.146l-0.146-0.377
					c-1.833,0.572-3.838-0.376-4.538-2.193l2.143,5.558c0.701,1.816,2.706,2.765,4.539,2.192l0.145,0.377
					c0.719,1.861,2.809,2.812,4.679,2.146c0.88,1.569,2.816,2.302,4.542,1.636C85.361,219.061,86.312,216.916,85.582,215.024z"/>
			</g>
			<path style="fill-rule:evenodd;clip-rule:evenodd;fill:#255262;" d="M66.983,197.227c-1.731,0.813-2.571,2.855-1.873,4.665
				l2.311,5.991c0.698,1.811,2.691,2.758,4.52,2.199L66.983,197.227z"/>
			<path style="fill-rule:evenodd;clip-rule:evenodd;fill:#255262;" d="M110.684,179.533l5.522,14.317
				c-0.034-0.122-0.073-0.243-0.12-0.362l-0.145-0.376c1.743-0.807,2.591-2.856,1.891-4.673l-2.311-5.991
				c-0.701-1.817-2.706-2.765-4.539-2.193l-0.145-0.376C110.792,179.76,110.741,179.645,110.684,179.533z"/>
		</g>
		<g>
			<path style="fill-rule:evenodd;clip-rule:evenodd;fill:#387286;" d="M389.339,165.755c0.267-2.433,1.37-7.049,2.923-7.363
				c0.906-0.184,2.074,0.193,1.111,2.328c-0.938,2.081-2.466,5.489-2.569,10.872C390.712,176.421,389.033,168.537,389.339,165.755z"
				/>
			<path style="fill-rule:evenodd;clip-rule:evenodd;fill:#387286;" d="M389.931,167.628c-0.302-3.98-3.679-7.056-8.564-6.996
				c-4.885,0.06-6.271,0.663-6.271,0.663S379.196,171.185,389.931,167.628z"/>
			<path style="fill-rule:evenodd;clip-rule:evenodd;fill:#387286;" d="M389.931,167.628c0.302-3.98,3.678-7.056,8.564-6.996
				c4.885,0.06,6.27,0.663,6.27,0.663S400.665,171.185,389.931,167.628z"/>
			<path style="fill-rule:evenodd;clip-rule:evenodd;fill:#CC342A;" d="M385.972,196.331c2.826,0.25,3.567-1.282,4.528-1.282
				c0.981,0,2.19,1.532,4.41,1.282c13.341-1.503,24.009-29.842-6.048-29.063C363.435,167.928,372.075,195.1,385.972,196.331z"/>
			<path style="fill-rule:evenodd;clip-rule:evenodd;fill:#D1544B;" d="M381.171,169.989c-4.629,2.3-7.345,6.255-6.063,8.833
				c1.28,2.578,6.072,2.803,10.702,0.502c4.63-2.301,7.345-6.255,6.063-8.833C390.593,167.915,385.801,167.69,381.171,169.989z"/>
		</g>
		<g>
			<path style="fill-rule:evenodd;clip-rule:evenodd;fill:#CC342A;" d="M318.999,194.177L318.999,194.177
				c3.299-4.823,9.942-6.07,14.764-2.773l3.846,2.628l2.628-3.844c3.299-4.822,9.941-6.07,14.764-2.772l0,0
				c12.468,8.525-0.847,23.707-12.405,33.176C329.828,217.406,310.463,206.659,318.999,194.177z"/>
			<path style="fill-rule:evenodd;clip-rule:evenodd;fill:#D1544B;" d="M320.921,196.345c-2.116,3.191-2.092,6.569,0.055,7.543
				c2.147,0.975,5.604-0.82,7.72-4.011c2.117-3.191,2.092-6.567-0.056-7.543C326.493,191.358,323.037,193.155,320.921,196.345z"/>
			<path style="fill-rule:evenodd;clip-rule:evenodd;fill:#D1544B;" d="M341.347,191.564c-1.618,2.095-1.767,4.424-0.336,5.204
				c1.432,0.778,3.904-0.288,5.52-2.383c1.618-2.095,1.77-4.425,0.338-5.204C345.438,188.402,342.964,189.468,341.347,191.564z"/>
		</g>
	</g>
</g>
</svg>
